<?xml version="1.0" encoding="utf-8"?>
<!-- Generator: Adobe Illustrator 27.1.1, SVG Export Plug-In . SVG Version: 6.00 Build 0)  -->
<svg version="1.1" xmlns="http://www.w3.org/2000/svg" xmlns:xlink="http://www.w3.org/1999/xlink" x="0px" y="0px"
	 viewBox="0 0 804 488.2" style="enable-background:new 0 0 804 488.2;" xml:space="preserve">
<style type="text/css">
	.st0{display:none;}
	.st1{display:inline;opacity:0.45;fill:#E6D7BC;}
	.st2{display:inline;}
	.st3{fill:none;}
	.st4{display:inline;fill:#051C2C;}
	.st5{fill:#FFFFFF;}
	.st6{display:inline;fill:#061F79;}
	.st7{display:inline;fill:#00A9F4;}
	.st8{display:inline;fill:#75F0E7;}
	.st9{display:inline;fill:#2251FF;}
	.st10{display:inline;fill:#14B8AB;}
	.st11{display:inline;fill:#0679C3;}
	.st12{display:inline;fill:#9C217D;}
	.st13{display:inline;fill:#F17E7E;}
	.st14{display:inline;fill:#108980;}
	.st15{display:inline;fill:#E479E4;}
	.st16{display:inline;fill:#1537BA;}
	.st17{display:inline;fill:#6ECBF7;}
	.st18{display:inline;fill:#99E6FF;}
	.st19{display:inline;fill:#103559;}
	.st20{display:inline;fill:#2B5580;}
	.st21{display:inline;fill:#5380AC;}
	.st22{display:inline;fill:#E6E6E6;}
	.st23{display:inline;fill:#34B4F4;}
	.st24{display:inline;fill:#FFFFFF;}
	.st25{fill:none;stroke:#231F20;stroke-width:0.5;stroke-miterlimit:10;}
	.st26{fill:#231F20;}
	.st27{display:inline;fill:#082644;}
	.st28{display:inline;fill:#1B456E;}
	.st29{display:inline;fill:#386694;}
	.st30{display:inline;fill:#82A6C9;}
	.st31{display:inline;fill:#084D91;}
	.st32{display:inline;fill:#0863AA;}
	.st33{display:inline;fill:#0291DC;}
	.st34{display:inline;fill:#0E2B99;}
	.st35{display:inline;fill:#1C44DC;}
	.st36{display:inline;fill:#2972FF;}
	.st37{display:inline;fill:#5E9DFF;}
	.st38{display:inline;fill:#99C4FF;}
	.st39{display:inline;fill:none;stroke:#FFFFFF;stroke-width:1.5;stroke-miterlimit:10;}
	.st40{display:inline;fill:none;stroke:#051C2C;stroke-miterlimit:10;}
	.st41{display:inline;fill:none;stroke:#00A9F4;stroke-miterlimit:10;}
	.st42{display:inline;fill:none;stroke:#2251FF;stroke-miterlimit:10;}
	.st43{fill:#CCCCCC;stroke:#FFFFFF;stroke-width:0.5;stroke-miterlimit:10;}
	.st44{fill:#979797;stroke:#FFFFFF;stroke-width:0.5;stroke-miterlimit:10;}
	.st45{fill:#75F0E7;stroke:#000000;stroke-width:0.5;stroke-miterlimit:10;}
	.st46{fill:#00A9F4;stroke:#231F20;stroke-width:0.5;stroke-miterlimit:10;}
	.st47{fill:#051C2C;}
	.st48{fill:#00A9F4;}
	.st49{fill:#75F0E7;}
	.st50{fill:#B3B3B3;}
	.st51{fill:none;stroke:#757575;stroke-width:0.25;stroke-miterlimit:10;}
	.st52{fill:none;stroke:#757575;stroke-width:0.5;stroke-miterlimit:10;}
	.st53{fill:none;stroke:#000000;stroke-width:0.5;stroke-miterlimit:10;}
	.st54{fill:none;stroke:#000000;stroke-miterlimit:10;}
	.st55{fill:#20E9DA;stroke:#FFFFFF;stroke-width:0.5;stroke-miterlimit:10;}
	.st56{fill:#0BDACB;stroke:#FFFFFF;stroke-width:0.5;stroke-miterlimit:10;}
	.st57{fill:#14B8AB;stroke:#FFFFFF;stroke-width:0.5;stroke-miterlimit:10;}
	.st58{fill:#108980;stroke:#FFFFFF;stroke-width:0.5;stroke-miterlimit:10;}
	.st59{fill:#2251FF;stroke:#FFFFFF;stroke-width:0.5;stroke-miterlimit:10;}
	.st60{fill:#061F79;stroke:#FFFFFF;stroke-width:0.5;stroke-miterlimit:10;}
	.st61{fill:#051C2C;stroke:#FFFFFF;stroke-width:0.5;stroke-miterlimit:10;}
	.st62{fill:#656565;}
	.st63{fill:#061F79;}
	.st64{fill:#051C2C;stroke:#FFFFFF;stroke-width:0.25;stroke-miterlimit:10;}
	.st65{fill:#75F0E7;stroke:#FFFFFF;stroke-miterlimit:10;}
	.st66{fill:#103559;}
	.st67{fill:none;stroke:#000000;stroke-width:0.25;stroke-miterlimit:10;}
	.st68{fill:none;stroke:#000000;stroke-width:0.2511;stroke-miterlimit:10;}
	.st69{fill:none;stroke:#000000;stroke-width:0.2366;stroke-miterlimit:10;}
	.st70{fill:none;stroke:#000000;stroke-width:0.2464;stroke-miterlimit:10;}
</style>
<g id="Rules_and_guides" class="st0">
</g>
<g id="Exhibit">
</g>
<g id="Map">
	<g id="Wyoming">
	</g>
	<g id="Wisconsin">
	</g>
	<g id="West_Virginia">
	</g>
	<g id="Washington">
	</g>
	<g id="Virginia">
	</g>
	<g id="Vermont">
	</g>
	<g id="Utah">
	</g>
	<g id="Texas">
	</g>
	<g id="Tennnessee">
	</g>
	<g id="South_Dakota">
	</g>
	<g id="South_Carolina">
	</g>
	<g id="Rhode_Island">
	</g>
	<g id="Pennsylvania">
	</g>
	<g id="Oregon">
	</g>
	<g id="Oklahoma">
	</g>
	<g id="Ohio">
	</g>
	<g id="North_Dakota">
	</g>
	<g id="North_Carolina">
	</g>
	<g id="Nevada">
	</g>
	<g id="Nebraska">
	</g>
	<g id="New_York">
	</g>
	<g id="New_Mexico">
	</g>
	<g id="New_Hampshire">
	</g>
	<g id="New_Jersey">
	</g>
	<g id="Montana">
	</g>
	<g id="Missouri">
	</g>
	<g id="Misssissippi">
	</g>
	<g id="Minnesota">
	</g>
	<g id="Michigan">
	</g>
	<g id="Massachusetts">
	</g>
	<g id="Maryland">
	</g>
	<g id="Maine">
	</g>
	<g id="Louisiana">
	</g>
	<g id="Kentucky">
	</g>
	<g id="Kansas">
	</g>
	<g id="Iowa">
	</g>
	<g id="Indiana">
	</g>
	<g id="Illinois">
	</g>
	<g id="Idaho">
	</g>
	<g id="Hawaii">
	</g>
	<g id="Georgia">
	</g>
	<g id="Florida">
	</g>
	<g id="Delaware">
	</g>
	<g id="DC">
	</g>
	<g id="Connecticut">
	</g>
	<g id="Colorado">
	</g>
	<g id="California">
	</g>
	<g id="Arkansas">
	</g>
	<g id="Arizona">
	</g>
	<g id="Alabama">
	</g>
	<g id="Alaska">
	</g>
</g>
<g id="Text">
	<g id="Source_long">
	</g>
	<g id="Source_short">
	</g>
	<g id="Attribution">
	</g>
	<g id="Footnote__x26__Source">
		<g id="Footnotes">
		</g>
		<g id="Attribution_and_source">
		</g>
	</g>
	<g id="Attribution_and_source_1_">
	</g>
	<g id="Attribution_and_source_new_1_">
	</g>
	<g id="Attribution_and_source_new">
	</g>
	<g id="X-axis">
	</g>
	<g id="XMLID_00000090975163617660434350000011387067702002428045_">
		<g>
			<g>
				<g>
					<g id="Subtitle_x2F_Unit_of_measure_00000129194344014261414270000000762870238509487776_">
						<g>
							<g>
								<path d="M7.5,71.7H5.4V59.4h2.2V71.7z"/>
								<path d="M17.8,71.7h-2.1v-4.3c0-0.6,0-1.2-0.1-1.6c-0.2-0.6-0.6-1-1.5-1c-1.3,0-1.9,1-1.9,2.4v4.6h-2.1v-8.6h2.1v1.1
									c0.4-0.8,1.4-1.3,2.7-1.3c1,0,1.8,0.3,2.4,1.1c0.4,0.6,0.6,1.2,0.6,2.9V71.7z"/>
								<path d="M25.6,65.5c-0.6-0.6-1.4-1-2.4-1c-0.8,0-1.4,0.3-1.4,0.8c0,0.6,0.6,0.7,1.8,1l1,0.2c1.3,0.3,2.5,0.8,2.5,2.4
									c0,2-1.8,2.9-3.7,2.9c-2.1,0-3.4-1-4-1.7l1.4-1.2c0.5,0.6,1.3,1.3,2.6,1.3c1,0,1.6-0.4,1.6-1c0-0.6-0.5-0.7-1.3-0.9
									l-1.3-0.3c-1.5-0.3-2.7-1-2.7-2.5c0-1.9,1.8-2.6,3.5-2.6c1.7,0,3,0.7,3.6,1.4L25.6,65.5z"/>
								<path d="M33.8,71.7c-0.4,0.1-0.9,0.1-1.5,0.1c-0.8,0-1.7-0.2-2.2-0.7c-0.3-0.4-0.4-0.9-0.4-1.7v-4.7h-1.8v-1.6h1.8v-3
									l2.1-0.5v3.4h2v1.6h-2v4.4c0,0.5,0.1,0.7,0.2,0.9c0.2,0.2,0.5,0.2,0.9,0.2c0.4,0,0.7,0,0.9-0.1V71.7z"/>
								<path d="M42.4,69.8c0,0.5,0.1,0.7,0.5,0.7H43v1.2c-0.2,0.1-0.5,0.1-1,0.1c-0.8,0-1.3-0.3-1.4-0.9c-0.4,0.4-1.1,0.9-2.6,0.9
									c-1.8,0-3.1-0.9-3.1-2.6c0-2.1,1.6-2.5,4.2-2.9l0.6-0.1c0.5-0.1,0.7-0.2,0.7-0.6v-0.1c0-0.7-0.5-1.1-1.5-1.1
									c-1.1,0-1.7,0.5-1.7,1.5l-1.9-0.1c0-2.1,1.6-3,3.7-3c2,0,3.4,0.7,3.4,2.6V69.8z M40.4,68.6v-1.1c-0.2,0.1-0.4,0.2-0.7,0.3
									L38.5,68c-1,0.2-1.5,0.5-1.5,1.2c0,0.7,0.5,1.1,1.5,1.1C39.6,70.3,40.4,69.8,40.4,68.6z"/>
								<path d="M46.9,71.7h-2.1V59.4h2.1V71.7z"/>
								<path d="M51.4,71.7h-2.1V59.4h2.1V71.7z"/>
								<path d="M61.5,69.7c-0.4,0.6-1.5,2.2-4,2.2c-2.5,0-4.3-1.8-4.3-4.6c0-2.6,1.8-4.4,4.2-4.4c2.7,0,4.1,1.9,4.1,4.5
									c0,0.1,0,0.4,0,0.5h-6.2c0.1,1.2,0.9,2.2,2.4,2.2c1.5,0,2.2-1,2.5-1.5L61.5,69.7z M55.3,66.4h4.2c-0.1-1.1-0.8-1.9-2-1.9
									C56.1,64.5,55.3,65.4,55.3,66.4z"/>
								<path d="M62.8,67.4c0-2.6,1.5-4.5,3.8-4.5c1.1,0,2.1,0.5,2.5,1.1v-4.6h2.1v12.2h-2.1v-0.9c-0.5,0.7-1.4,1.1-2.5,1.1
									C64.4,71.9,62.8,70,62.8,67.4z M67.1,64.7c-1.3,0-2.2,1-2.2,2.7c0,1.7,0.9,2.7,2.2,2.7c1.3,0,2.2-1.1,2.2-2.7
									C69.3,65.7,68.4,64.7,67.1,64.7z"/>
								<path d="M83.5,68.4c-0.2-0.8-0.5-2-0.6-2.9h0c-0.2,0.8-0.4,2-0.7,2.9l-1,3.2h-2l-2.5-8.6h2.1l1,3.8c0.2,0.8,0.4,1.5,0.6,2.4
									h0c0.2-0.8,0.3-1.5,0.6-2.5l1-3.7h1.8l1,3.8c0.3,1.1,0.4,1.5,0.6,2.4h0c0.2-0.8,0.3-1.4,0.6-2.5l1-3.7H89l-2.6,8.6h-2
									L83.5,68.4z"/>
								<path d="M94.2,62.9c2.6,0,4.3,1.8,4.3,4.5c0,2.7-1.7,4.5-4.3,4.5s-4.3-1.7-4.3-4.5C89.9,64.7,91.6,62.9,94.2,62.9z
									 M94.2,70.1c1.3,0,2.3-1,2.3-2.7c0-1.7-0.9-2.7-2.3-2.7c-1.4,0-2.3,1-2.3,2.7C91.9,69.1,92.9,70.1,94.2,70.1z"/>
								<path d="M102.4,63.1v1.3c0.2-0.4,0.8-1.5,2.5-1.5c0.1,0,0.1,0,0.3,0V65c-0.2,0-0.4,0-0.6,0c-1.1,0-1.7,0.4-2,1.2
									c-0.2,0.4-0.2,0.9-0.2,1.7v3.9h-2.1v-8.6H102.4z"/>
								<path d="M106.2,67.4c0-2.6,1.5-4.5,3.8-4.5c1.1,0,2.1,0.5,2.5,1.1v-4.6h2.1v12.2h-2.1v-0.9c-0.5,0.7-1.4,1.1-2.5,1.1
									C107.7,71.9,106.2,70,106.2,67.4z M110.4,64.7c-1.3,0-2.2,1-2.2,2.7c0,1.7,0.9,2.7,2.2,2.7c1.3,0,2.2-1.1,2.2-2.7
									C112.6,65.7,111.7,64.7,110.4,64.7z"/>
								<path d="M122.9,68.4c-0.2-0.8-0.5-2-0.6-2.9h0c-0.2,0.8-0.4,2-0.7,2.9l-1,3.2h-2l-2.5-8.6h2.1l1,3.8
									c0.2,0.8,0.4,1.5,0.6,2.4h0c0.2-0.8,0.3-1.5,0.6-2.5l1-3.7h1.8l1,3.8c0.3,1.1,0.4,1.5,0.6,2.4h0c0.2-0.8,0.3-1.4,0.6-2.5
									l1-3.7h2.1l-2.6,8.6h-2L122.9,68.4z"/>
								<path d="M131.9,61.5h-2.1v-2.1h2.1V61.5z M131.9,71.7h-2.1v-8.6h2.1V71.7z"/>
								<path d="M133.8,67.4c0-2.6,1.5-4.5,3.8-4.5c1.1,0,2.1,0.5,2.5,1.1v-4.6h2.1v12.2h-2.1v-0.9c-0.5,0.7-1.4,1.1-2.5,1.1
									C135.3,71.9,133.8,70,133.8,67.4z M138,64.7c-1.3,0-2.2,1-2.2,2.7c0,1.7,0.9,2.7,2.2,2.7c1.3,0,2.2-1.1,2.2-2.7
									C140.2,65.7,139.3,64.7,138,64.7z"/>
								<path d="M152.3,69.7c-0.4,0.6-1.5,2.2-4,2.2c-2.5,0-4.3-1.8-4.3-4.6c0-2.6,1.8-4.4,4.2-4.4c2.7,0,4.1,1.9,4.1,4.5
									c0,0.1,0,0.4,0,0.5H146c0.1,1.2,0.9,2.2,2.4,2.2c1.5,0,2.2-1,2.5-1.5L152.3,69.7z M146.1,66.4h4.2c-0.1-1.1-0.8-1.9-2-1.9
									C146.9,64.5,146.1,65.4,146.1,66.4z"/>
								<path d="M163.9,66.2c-0.3-0.9-1-1.5-2-1.5c-1.4,0-2.2,1-2.2,2.7c0,1.7,0.9,2.7,2.2,2.7c1.2,0,1.7-0.7,2.1-1.5l1.7,0.9
									c-0.4,0.9-1.6,2.4-3.8,2.4c-2.5,0-4.2-1.6-4.2-4.5s1.9-4.5,4.2-4.5c2,0,3.2,1.1,3.8,2.4L163.9,66.2z"/>
								<path d="M174.1,69.8c0,0.5,0.1,0.7,0.5,0.7h0.1v1.2c-0.2,0.1-0.5,0.1-1,0.1c-0.8,0-1.3-0.3-1.4-0.9
									c-0.4,0.4-1.1,0.9-2.6,0.9c-1.8,0-3.1-0.9-3.1-2.6c0-2.1,1.6-2.5,4.2-2.9l0.6-0.1c0.5-0.1,0.7-0.2,0.7-0.6v-0.1
									c0-0.7-0.5-1.1-1.5-1.1c-1.1,0-1.7,0.5-1.7,1.5l-1.9-0.1c0-2.1,1.6-3,3.7-3c2,0,3.4,0.7,3.4,2.6V69.8z M172.1,68.6v-1.1
									c-0.2,0.1-0.4,0.2-0.7,0.3l-1.2,0.2c-1,0.2-1.5,0.5-1.5,1.2c0,0.7,0.5,1.1,1.5,1.1C171.3,70.3,172.1,69.8,172.1,68.6z"/>
								<path d="M178.6,70.8v4.3h-2.1v-12h2.1v1c0.5-0.6,1.4-1.2,2.5-1.2c2.3,0,3.8,1.8,3.8,4.5c0,2.6-1.5,4.5-3.8,4.5
									C180,71.9,179.1,71.4,178.6,70.8z M180.7,70.1c1.3,0,2.2-1,2.2-2.7c0-1.7-0.9-2.7-2.2-2.7c-1.3,0-2.2,1.1-2.2,2.7
									C178.5,69,179.4,70.1,180.7,70.1z"/>
								<path d="M193.7,69.8c0,0.5,0.1,0.7,0.5,0.7h0.1v1.2c-0.2,0.1-0.5,0.1-1,0.1c-0.8,0-1.3-0.3-1.4-0.9
									c-0.4,0.4-1.1,0.9-2.6,0.9c-1.8,0-3.1-0.9-3.1-2.6c0-2.1,1.6-2.5,4.2-2.9l0.6-0.1c0.5-0.1,0.7-0.2,0.7-0.6v-0.1
									c0-0.7-0.5-1.1-1.5-1.1c-1.1,0-1.7,0.5-1.7,1.5l-1.9-0.1c0-2.1,1.6-3,3.7-3c2,0,3.4,0.7,3.4,2.6V69.8z M191.7,68.6v-1.1
									c-0.2,0.1-0.4,0.2-0.7,0.3l-1.2,0.2c-1,0.2-1.5,0.5-1.5,1.2c0,0.7,0.5,1.1,1.5,1.1C190.8,70.3,191.7,69.8,191.7,68.6z"/>
								<path d="M201.8,66.2c-0.3-0.9-1-1.5-2-1.5c-1.4,0-2.2,1-2.2,2.7c0,1.7,0.9,2.7,2.2,2.7c1.2,0,1.7-0.7,2.1-1.5l1.7,0.9
									c-0.4,0.9-1.6,2.4-3.8,2.4c-2.5,0-4.2-1.6-4.2-4.5s1.9-4.5,4.2-4.5c2,0,3.2,1.1,3.8,2.4L201.8,66.2z"/>
								<path d="M207.2,61.5h-2.1v-2.1h2.1V61.5z M207.2,71.7h-2.1v-8.6h2.1V71.7z"/>
								<path d="M214.6,71.7c-0.4,0.1-0.9,0.1-1.5,0.1c-0.8,0-1.7-0.2-2.2-0.7c-0.3-0.4-0.4-0.9-0.4-1.7v-4.7h-1.8v-1.6h1.8v-3
									l2.1-0.5v3.4h2v1.6h-2v4.4c0,0.5,0.1,0.7,0.2,0.9c0.2,0.2,0.5,0.2,0.9,0.2c0.4,0,0.7,0,0.9-0.1V71.7z"/>
								<path d="M223,63.1l-2.9,9.6c-0.3,1-0.5,1.5-0.9,1.9c-0.5,0.5-1,0.7-2,0.7c-0.6,0-0.8-0.1-1.1-0.1v-1.7
									c0.2,0.1,0.4,0.1,0.7,0.1c0.9,0,1.2-0.4,1.4-1.1l0.1-0.5l-3.1-8.8h2.2l1.4,4.6c0.2,0.8,0.5,1.8,0.5,1.8h0c0,0,0.2-1,0.4-1.8
									l1.2-4.6H223z"/>
								<path d="M226.8,69.3v1.8c0,0.3,0,0.7,0,1c-0.1,1.3-0.6,2.1-2.3,2.2v-1.2c0.7-0.1,1-0.3,1-1.3v-0.2h-1v-2.4H226.8z"/>
								<path d="M235.1,70.8v0.9H233V59.4h2.1V64c0.5-0.6,1.4-1.2,2.5-1.2c2.3,0,3.8,1.9,3.8,4.5c0,2.6-1.5,4.5-3.8,4.5
									C236.4,71.9,235.6,71.4,235.1,70.8z M237.2,70.1c1.3,0,2.2-1,2.2-2.7c0-1.7-0.9-2.7-2.2-2.7c-1.3,0-2.2,1.1-2.2,2.7
									C235,69,235.9,70.1,237.2,70.1z"/>
								<path d="M249.9,63.1l-2.9,9.6c-0.3,1-0.5,1.5-0.9,1.9c-0.5,0.5-1,0.7-2,0.7c-0.6,0-0.8-0.1-1.1-0.1v-1.7
									c0.2,0.1,0.4,0.1,0.7,0.1c0.9,0,1.2-0.4,1.4-1.1l0.1-0.5l-3.1-8.8h2.2l1.4,4.6c0.2,0.8,0.5,1.8,0.5,1.8h0c0,0,0.2-1,0.4-1.8
									l1.2-4.6H249.9z"/>
								<path d="M263.1,71.7h-2.1v-4.3c0-0.6,0-1.2-0.1-1.6c-0.2-0.6-0.6-1-1.5-1c-1.3,0-1.9,1-1.9,2.4v4.6h-2.1v-8.6h2.1v1.1
									c0.4-0.8,1.4-1.3,2.7-1.3c1,0,1.8,0.3,2.4,1.1c0.4,0.6,0.6,1.2,0.6,2.9V71.7z"/>
								<path d="M269.2,62.9c2.6,0,4.3,1.8,4.3,4.5c0,2.7-1.7,4.5-4.3,4.5s-4.3-1.7-4.3-4.5C264.9,64.7,266.6,62.9,269.2,62.9z
									 M269.2,70.1c1.3,0,2.3-1,2.3-2.7c0-1.7-0.9-2.7-2.3-2.7s-2.2,1-2.2,2.7C266.9,69.1,267.9,70.1,269.2,70.1z"/>
								<path d="M274.8,67.4c0-2.6,1.5-4.5,3.8-4.5c1.1,0,2.1,0.5,2.5,1.1v-4.6h2.1v12.2h-2.1v-0.9c-0.5,0.7-1.4,1.1-2.5,1.1
									C276.3,71.9,274.8,70,274.8,67.4z M279,64.7c-1.3,0-2.2,1-2.2,2.7c0,1.7,0.9,2.7,2.2,2.7c1.3,0,2.2-1.1,2.2-2.7
									C281.2,65.7,280.3,64.7,279,64.7z"/>
								<path d="M293.3,69.7c-0.4,0.6-1.5,2.2-4,2.2c-2.5,0-4.3-1.8-4.3-4.6c0-2.6,1.8-4.4,4.2-4.4c2.7,0,4.1,1.9,4.1,4.5
									c0,0.1,0,0.4,0,0.5H287c0.1,1.2,0.9,2.2,2.4,2.2c1.5,0,2.2-1,2.5-1.5L293.3,69.7z M287.1,66.4h4.2c-0.1-1.1-0.8-1.9-2-1.9
									C287.9,64.5,287.1,65.4,287.1,66.4z"/>
								<path d="M304.6,65.5c-0.6-0.6-1.4-1-2.4-1c-0.8,0-1.4,0.3-1.4,0.8c0,0.6,0.6,0.7,1.8,1l1,0.2c1.3,0.3,2.5,0.8,2.5,2.4
									c0,2-1.8,2.9-3.7,2.9c-2.1,0-3.4-1-4-1.7l1.4-1.2c0.5,0.6,1.3,1.3,2.6,1.3c1,0,1.6-0.4,1.6-1c0-0.6-0.5-0.7-1.3-0.9
									l-1.3-0.3c-1.5-0.3-2.7-1-2.7-2.5c0-1.9,1.8-2.6,3.5-2.6c1.7,0,3,0.7,3.6,1.4L304.6,65.5z"/>
								<path d="M309.9,61.5h-2.1v-2.1h2.1V61.5z M309.9,71.7h-2.1v-8.6h2.1V71.7z"/>
								<path d="M319,63.1v1.6l-4.6,5.2h4.6v1.8h-7.3v-1.6l4.6-5.2h-4.5v-1.8H319z"/>
								<path d="M328.6,69.7c-0.4,0.6-1.5,2.2-4,2.2c-2.5,0-4.3-1.8-4.3-4.6c0-2.6,1.8-4.4,4.2-4.4c2.7,0,4.1,1.9,4.1,4.5
									c0,0.1,0,0.4,0,0.5h-6.2c0.1,1.2,0.9,2.2,2.4,2.2c1.5,0,2.2-1,2.5-1.5L328.6,69.7z M322.4,66.4h4.2c-0.1-1.1-0.8-1.9-2-1.9
									C323.2,64.5,322.4,65.4,322.4,66.4z"/>
								<path d="M332.7,69.3v1.8c0,0.3,0,0.7,0,1c-0.1,1.3-0.6,2.1-2.3,2.2v-1.2c0.7-0.1,1-0.3,1-1.3v-0.2h-1v-2.4H332.7z"/>
								<path d="M339.1,71.7V59.4h3.4c2,0,3.2,0,4.5,0.9c1.3,1,2.3,2.8,2.3,5.2c0,2.1-0.6,3.8-1.8,4.9c-1.3,1.3-2.7,1.3-5,1.3H339.1
									z M341.3,69.7h1.4c1.4,0,2.4,0,3.2-0.7c0.6-0.6,1.1-1.9,1.1-3.4c0-1.5-0.4-2.7-1.3-3.4c-0.7-0.6-1.6-0.7-3.2-0.7h-1.2V69.7z
									"/>
								<path d="M359,69.7c-0.4,0.6-1.5,2.2-4,2.2c-2.5,0-4.3-1.8-4.3-4.6c0-2.6,1.8-4.4,4.2-4.4c2.7,0,4.1,1.9,4.1,4.5
									c0,0.1,0,0.4,0,0.5h-6.2c0.1,1.2,0.9,2.2,2.4,2.2c1.5,0,2.2-1,2.5-1.5L359,69.7z M352.7,66.4h4.2c-0.1-1.1-0.8-1.9-2-1.9
									C353.6,64.5,352.8,65.4,352.7,66.4z"/>
								<path d="M366.5,66.2c-0.3-0.9-1-1.5-2-1.5c-1.4,0-2.2,1-2.2,2.7c0,1.7,0.9,2.7,2.2,2.7c1.2,0,1.7-0.7,2.1-1.5l1.7,0.9
									c-0.4,0.9-1.6,2.4-3.8,2.4c-2.5,0-4.2-1.6-4.2-4.5s1.9-4.5,4.2-4.5c2,0,3.2,1.1,3.8,2.4L366.5,66.2z"/>
								<path d="M377.6,69.7c-0.4,0.6-1.5,2.2-4,2.2c-2.5,0-4.3-1.8-4.3-4.6c0-2.6,1.8-4.4,4.2-4.4c2.7,0,4.1,1.9,4.1,4.5
									c0,0.1,0,0.4,0,0.5h-6.2c0.1,1.2,0.9,2.2,2.4,2.2c1.5,0,2.2-1,2.5-1.5L377.6,69.7z M371.4,66.4h4.2c-0.1-1.1-0.8-1.9-2-1.9
									C372.2,64.5,371.4,65.4,371.4,66.4z"/>
								<path d="M386.7,64.2c0.5-0.6,1.4-1.3,2.9-1.3c1.1,0,1.8,0.3,2.3,0.8c0.5,0.6,0.8,1.2,0.8,3.1v4.8h-2.1v-4.3
									c0-1.5-0.1-2.6-1.7-2.6c-1.3,0-1.9,1-1.9,2.4v4.6h-2.1v-4.3c0-1.5-0.1-2.6-1.7-2.6c-1.3,0-1.9,1-1.9,2.4v4.6h-2.1v-8.6h2.1
									v1.1c0.4-0.7,1.3-1.3,2.7-1.3c0.9,0,1.6,0.3,2.1,0.8C386.5,63.9,386.6,64,386.7,64.2z"/>
								<path d="M397.1,70.8v0.9H395V59.4h2.1V64c0.5-0.6,1.4-1.2,2.5-1.2c2.3,0,3.8,1.9,3.8,4.5c0,2.6-1.5,4.5-3.8,4.5
									C398.5,71.9,397.6,71.4,397.1,70.8z M399.2,70.1c1.3,0,2.2-1,2.2-2.7c0-1.7-0.9-2.7-2.2-2.7c-1.3,0-2.2,1.1-2.2,2.7
									C397,69,397.9,70.1,399.2,70.1z"/>
								<path d="M413,69.7c-0.4,0.6-1.5,2.2-4,2.2c-2.5,0-4.3-1.8-4.3-4.6c0-2.6,1.8-4.4,4.2-4.4c2.7,0,4.1,1.9,4.1,4.5
									c0,0.1,0,0.4,0,0.5h-6.2c0.1,1.2,0.9,2.2,2.4,2.2c1.5,0,2.2-1,2.5-1.5L413,69.7z M406.8,66.4h4.2c-0.1-1.1-0.8-1.9-2-1.9
									C407.6,64.5,406.8,65.4,406.8,66.4z"/>
								<path d="M416.9,63.1v1.3c0.2-0.4,0.8-1.5,2.5-1.5c0.1,0,0.1,0,0.3,0V65c-0.2,0-0.4,0-0.6,0c-1.1,0-1.7,0.4-2,1.2
									c-0.2,0.4-0.2,0.9-0.2,1.7v3.9h-2.1v-8.6H416.9z"/>
								<path d="M425.2,64.2c-0.1-0.3-0.2-0.7-0.2-1.3c0-2.1,1.7-3.7,4.3-3.7c2.5,0,4.1,1.5,4.1,3.8c0,2.8-2.6,4.8-4.7,6.4l-0.6,0.4
									v0c0,0,0.7,0,1.9,0h3.6v1.9h-8.9V70c1-0.7,2-1.4,3.7-3c1.5-1.4,2.6-2.3,2.6-3.9c0-1.2-0.8-2.1-2-2.1c-1.4,0-2,1.1-2,2.2
									c0,0.4,0.1,0.8,0.2,1.2L425.2,64.2z"/>
								<path d="M439.9,71.9c-3.5,0-4.7-2.8-4.7-6.3c0-3,1.2-6.4,4.7-6.4c3.4,0,4.6,3.1,4.6,6.4C444.5,68.7,443.5,71.9,439.9,71.9z
									 M439.9,61.1c-1.9,0-2.4,2.4-2.4,4.5c0,2.1,0.5,4.3,2.4,4.3c1.9,0,2.4-2.2,2.4-4.3C442.3,63.5,441.8,61.1,439.9,61.1z"/>
								<path d="M446.4,64.2c-0.1-0.3-0.2-0.7-0.2-1.3c0-2.1,1.7-3.7,4.3-3.7c2.5,0,4.1,1.5,4.1,3.8c0,2.8-2.6,4.8-4.7,6.4l-0.6,0.4
									v0c0,0,0.7,0,1.9,0h3.6v1.9H446V70c1-0.7,2-1.4,3.7-3c1.5-1.4,2.6-2.3,2.6-3.9c0-1.2-0.8-2.1-2-2.1c-1.4,0-2,1.1-2,2.2
									c0,0.4,0.1,0.8,0.2,1.2L446.4,64.2z"/>
								<path d="M461.1,71.9c-3.5,0-4.7-2.8-4.7-6.3c0-3,1.2-6.4,4.7-6.4c3.4,0,4.6,3.1,4.6,6.4C465.8,68.7,464.7,71.9,461.1,71.9z
									 M461.1,61.1c-1.9,0-2.4,2.4-2.4,4.5c0,2.1,0.5,4.3,2.4,4.3s2.4-2.2,2.4-4.3C463.5,63.5,463,61.1,461.1,61.1z"/>
								<path d="M469.9,69.3v1.8c0,0.3,0,0.7,0,1c-0.1,1.3-0.6,2.1-2.3,2.2v-1.2c0.7-0.1,1-0.3,1-1.3v-0.2h-1v-2.4H469.9z"/>
								<path d="M478.6,67.1c-2.1,0-2.7-2.1-2.7-3.9c0-1.9,0.6-3.9,2.7-3.9c2.1,0,2.7,2.1,2.7,3.9C481.3,65.1,480.7,67.1,478.6,67.1
									z M478.6,60c-1.3,0-1.8,1.5-1.8,3.2c0,1.7,0.6,3.2,1.8,3.2c1.3,0,1.8-1.5,1.8-3.2C480.4,61.5,479.8,60,478.6,60z
									 M487.7,59.4l-8.2,12.2h-1l8.2-12.2H487.7z M487.8,71.8c-2.1,0-2.7-2.1-2.7-3.9c0-1.9,0.6-3.9,2.7-3.9s2.7,2.1,2.7,3.9
									C490.5,69.7,490,71.8,487.8,71.8z M487.8,64.7c-1.3,0-1.8,1.5-1.8,3.2s0.6,3.2,1.8,3.2c1.3,0,1.8-1.5,1.8-3.2
									S489.1,64.7,487.8,64.7z"/>
							</g>
						</g>
					</g>
				</g>
			</g>
		</g>
	</g>
	<g id="XMLID_00000134954453707202768600000015917155717139423638_">
		<g>
			<g>
				<g id="Footnote_x2C__source_00000031192136695717332780000011197509278125002156_">
					<g>
						<g>
							<path class="st62" d="M6.3,411.1v-3.7c-0.2,0.2-0.6,0.2-0.9,0.2c-0.1,0-0.3,0-0.3,0V407h0.2c0.3,0,0.6,0,0.8-0.2
								c0.2-0.2,0.3-0.4,0.3-0.8h0.6v5H6.3z"/>
							<path class="st62" d="M12.6,415.7h-0.5l-2-4.8c-0.3-0.8-0.7-2-0.8-2.4h0c0,0.4,0.1,2.1,0.1,2.8v4.4H8.6v-8.2h0.9l2.4,5.8
								c0.2,0.6,0.4,0.9,0.5,1.2h0c0.1-0.3,0.2-0.7,0.4-1.2l2.3-5.8H16v8.2h-0.8v-4.2c0-0.7,0.1-2.8,0.1-3.2h0
								c-0.1,0.3-0.5,1.6-0.8,2.4L12.6,415.7z"/>
							<path class="st62" d="M18.7,408.7H18v-1.2h0.7V408.7z M18.7,415.7H18V410h0.7V415.7z"/>
							<path class="st62" d="M24.4,411.7c-0.3-0.8-0.8-1.2-1.6-1.2c-1.1,0-1.8,0.9-1.8,2.4s0.7,2.4,1.8,2.4c0.8,0,1.3-0.4,1.7-1.1
								l0.6,0.3c-0.4,0.8-1.2,1.4-2.2,1.4c-1.6,0-2.6-1.2-2.6-3c0-1.8,1-3,2.6-3c1.1,0,1.9,0.6,2.2,1.5L24.4,411.7z"/>
							<path class="st62" d="M29.1,410.6c-0.1,0-0.3,0-0.4,0c-1,0-1.7,0.8-1.7,1.9v3.2h-0.7V410H27v1.1h0c0.2-0.7,0.9-1.3,1.7-1.3
								c0.1,0,0.3,0,0.4,0V410.6z"/>
							<path class="st62" d="M32.5,409.8c1.6,0,2.6,1.2,2.6,3c0,1.8-1,3-2.6,3s-2.6-1.2-2.6-3C29.9,411,30.9,409.8,32.5,409.8z
								 M32.5,415.2c1.1,0,1.8-0.9,1.8-2.4c0-1.5-0.7-2.4-1.8-2.4s-1.8,0.9-1.8,2.4S31.4,415.2,32.5,415.2z"/>
							<path class="st62" d="M43.2,412.6c0-0.9,0-1.4-0.3-1.7c-0.1-0.2-0.4-0.4-0.8-0.4c-1,0-1.5,0.8-1.5,2.1v3h-0.7v-3.1
								c0-0.9,0-1.4-0.3-1.7c-0.1-0.2-0.4-0.4-0.8-0.4c-1,0-1.5,0.8-1.5,2.1v3h-0.7V410h0.7v1h0c0.2-0.7,0.9-1.1,1.7-1.1
								c0.7,0,1.4,0.4,1.5,1.2c0.3-0.7,0.9-1.2,1.8-1.2c0.4,0,0.8,0.1,1.1,0.4c0.4,0.4,0.5,0.9,0.5,2v3.5h-0.7V412.6z"/>
							<path class="st62" d="M50.5,414.3c-0.3,0.6-1,1.5-2.5,1.5c-1.6,0-2.6-1.1-2.6-3c0-1.7,1-3,2.6-3c1.7,0,2.5,1.3,2.5,3v0.1
								h-4.3v0.1c0,1.5,0.9,2.2,1.9,2.2c1.1,0,1.7-0.7,1.9-1.3L50.5,414.3z M46.1,412.3h3.5c0-0.9-0.6-1.9-1.7-1.9
								C46.9,410.4,46.2,411.2,46.1,412.3z"/>
							<path class="st62" d="M51.2,410h1.2v-2.1l0.7-0.2v2.3h1.4v0.6H53v3.8c0,0.6,0.2,0.8,0.6,0.8c0.3,0,0.6-0.1,0.7-0.2v0.6
								c-0.2,0.1-0.5,0.2-0.9,0.2c-0.7,0-1.2-0.3-1.2-1.3v-4h-1.2V410z"/>
							<path class="st62" d="M60.4,414.3c-0.3,0.6-1,1.5-2.5,1.5c-1.6,0-2.6-1.1-2.6-3c0-1.7,1-3,2.6-3c1.7,0,2.5,1.3,2.5,3v0.1H56
								v0.1c0,1.5,0.9,2.2,1.9,2.2c1.1,0,1.7-0.7,1.9-1.3L60.4,414.3z M56.1,412.3h3.5c0-0.9-0.6-1.9-1.7-1.9
								C56.9,410.4,56.2,411.2,56.1,412.3z"/>
							<path class="st62" d="M64.7,410.6c-0.1,0-0.3,0-0.4,0c-1,0-1.7,0.8-1.7,1.9v3.2h-0.7V410h0.7v1.1h0c0.2-0.7,0.9-1.3,1.7-1.3
								c0.1,0,0.3,0,0.4,0V410.6z"/>
							<path class="st62" d="M66.7,414.3v1.4h-1v-1.4H66.7z"/>
							<path class="st62" d="M5.4,421.3c-0.1-0.3-0.2-0.6-0.2-0.8c0-0.8,0.6-1.5,1.7-1.5c1.1,0,1.7,0.8,1.7,1.7c0,1-0.8,1.7-1.5,2.3
								c-0.4,0.3-0.7,0.6-0.9,0.7h2.4v0.5H5.3v-0.5c0.4-0.2,1.2-0.8,1.8-1.3c0.5-0.4,0.9-0.9,0.9-1.7c0-0.7-0.5-1.2-1.1-1.2
								c-0.7,0-1.1,0.5-1.1,1.1c0,0.4,0.2,0.8,0.3,0.9L5.4,421.3z"/>
							<path class="st62" d="M14.3,425.4c0.3,0.5,0.9,1.4,1.4,2.1h0c0-0.3,0-1.4,0-2.3v-4.7h0.8v8.2h-0.8l-3.7-5.5
								c-0.3-0.5-0.9-1.3-1.1-1.7h0c0,0.3,0,1.5,0,2.6v4.6h-0.8v-8.2h0.8L14.3,425.4z"/>
							<path class="st62" d="M22.4,424.7v2.9c0,0.5,0.2,0.7,0.5,0.7c0.1,0,0.3,0,0.3-0.1v0.5c-0.1,0-0.3,0.1-0.6,0.1
								c-0.6,0-0.9-0.2-0.9-0.9h0c-0.3,0.4-0.9,1-1.9,1c-1.1,0-1.9-0.6-1.9-1.6c0-1.2,1.1-1.5,2.4-1.8l0.6-0.1
								c0.6-0.1,0.8-0.2,0.8-0.7v0c0-0.7-0.4-1.2-1.4-1.2c-1,0-1.5,0.5-1.5,1.3l-0.7-0.1c0-1.1,0.9-1.8,2.2-1.8
								C21.5,422.9,22.4,423.2,22.4,424.7z M21.7,426.7v-1.1c-0.1,0.1-0.2,0.1-0.5,0.2l-1.4,0.3c-0.8,0.2-1.2,0.4-1.2,1.1
								c0,0.7,0.6,1.1,1.3,1.1C20.9,428.3,21.7,427.6,21.7,426.7z"/>
							<path class="st62" d="M28.7,428.7H28v-3.1c0-0.9-0.1-1.4-0.4-1.8c-0.2-0.2-0.6-0.4-1-0.4c-0.5,0-0.9,0.2-1.2,0.5
								c-0.3,0.3-0.5,0.9-0.5,1.3v3.4h-0.7V423h0.7v0.9h0c0.2-0.6,0.9-1.1,1.8-1.1c0.6,0,1.1,0.2,1.4,0.6c0.4,0.4,0.5,0.8,0.5,2.1
								V428.7z"/>
							<path class="st62" d="M32.7,422.8c1.6,0,2.6,1.2,2.6,3c0,1.8-1,3-2.6,3s-2.6-1.2-2.6-3C30.1,424,31.1,422.8,32.7,422.8z
								 M32.7,428.2c1.1,0,1.8-0.9,1.8-2.4c0-1.5-0.7-2.4-1.8-2.4s-1.8,0.9-1.8,2.4S31.6,428.2,32.7,428.2z"/>
							<path class="st62" d="M43.4,425.6c0-0.9,0-1.4-0.3-1.7c-0.1-0.2-0.4-0.4-0.8-0.4c-1,0-1.5,0.8-1.5,2.1v3h-0.7v-3.1
								c0-0.9,0-1.4-0.3-1.7c-0.1-0.2-0.4-0.4-0.8-0.4c-1,0-1.5,0.8-1.5,2.1v3h-0.7V423h0.7v1h0c0.2-0.7,0.9-1.1,1.7-1.1
								c0.7,0,1.4,0.4,1.5,1.2c0.3-0.7,0.9-1.2,1.8-1.2c0.4,0,0.8,0.1,1.1,0.4c0.4,0.4,0.5,0.9,0.5,2v3.5h-0.7V425.6z"/>
							<path class="st62" d="M50.7,427.3c-0.3,0.6-1,1.5-2.5,1.5c-1.6,0-2.6-1.1-2.6-3c0-1.7,1-3,2.6-3c1.7,0,2.5,1.3,2.5,3v0.1
								h-4.3v0.1c0,1.5,0.9,2.2,1.9,2.2c1.1,0,1.7-0.7,1.9-1.3L50.7,427.3z M46.3,425.3h3.5c0-0.9-0.6-1.9-1.7-1.9
								C47.1,423.4,46.4,424.2,46.3,425.3z"/>
							<path class="st62" d="M51.4,423h1.2v-2.1l0.7-0.2v2.3h1.4v0.6h-1.4v3.8c0,0.6,0.2,0.8,0.6,0.8c0.3,0,0.6-0.1,0.7-0.2v0.6
								c-0.2,0.1-0.5,0.2-0.9,0.2c-0.7,0-1.2-0.3-1.2-1.3v-4h-1.2V423z"/>
							<path class="st62" d="M60.7,427.3c-0.3,0.6-1,1.5-2.5,1.5c-1.6,0-2.6-1.1-2.6-3c0-1.7,1-3,2.6-3c1.7,0,2.5,1.3,2.5,3v0.1
								h-4.3v0.1c0,1.5,0.9,2.2,1.9,2.2c1.1,0,1.7-0.7,1.9-1.3L60.7,427.3z M56.3,425.3h3.5c0-0.9-0.6-1.9-1.7-1.9
								C57.1,423.4,56.4,424.2,56.3,425.3z"/>
							<path class="st62" d="M64.9,423.6c-0.1,0-0.3,0-0.4,0c-1,0-1.7,0.8-1.7,1.9v3.2h-0.7V423h0.7v1.1h0c0.2-0.7,0.9-1.3,1.7-1.3
								c0.1,0,0.3,0,0.4,0V423.6z"/>
							<path class="st62" d="M66.9,427.3v1.4h-1v-1.4H66.9z"/>
							<path class="st62" d="M10.5,435.1c-0.5-0.7-1.2-1.1-2.2-1.1c-1.1,0-1.9,0.6-1.9,1.5c0,0.9,0.6,1.2,1.6,1.5l1.1,0.3
								c1.4,0.3,2.3,0.8,2.3,2.2c0,1.4-1.1,2.4-3,2.4c-1.8,0-2.8-0.9-3.2-1.9l0.7-0.4c0.3,0.8,1.2,1.6,2.6,1.6
								c1.4,0,2.2-0.7,2.2-1.7c0-0.9-0.6-1.3-1.8-1.5l-1-0.2c-1.2-0.3-2.2-0.7-2.2-2.1c0-1.3,1.1-2.2,2.7-2.2c1.4,0,2.2,0.6,2.7,1.2
								L10.5,435.1z"/>
							<path class="st62" d="M15,435.8c1.6,0,2.6,1.2,2.6,3c0,1.8-1,3-2.6,3s-2.6-1.2-2.6-3C12.4,437,13.4,435.8,15,435.8z
								 M15,441.2c1.1,0,1.8-0.9,1.8-2.4c0-1.5-0.7-2.4-1.8-2.4s-1.8,0.9-1.8,2.4S13.9,441.2,15,441.2z"/>
							<path class="st62" d="M19,436h0.7v3.3c0,0.7,0.1,1.2,0.4,1.6c0.2,0.2,0.5,0.4,1,0.4c1.2,0,1.6-1,1.6-1.8V436h0.7v5.7h-0.7
								v-0.9h0c-0.2,0.6-0.8,1.1-1.8,1.1c-0.6,0-1.1-0.2-1.4-0.6c-0.3-0.4-0.5-0.9-0.5-1.7V436z"/>
							<path class="st62" d="M28.1,436.6c-0.1,0-0.3,0-0.4,0c-1,0-1.7,0.8-1.7,1.9v3.2h-0.7V436H26v1.1h0c0.2-0.7,0.9-1.3,1.7-1.3
								c0.1,0,0.3,0,0.4,0V436.6z"/>
							<path class="st62" d="M33.1,437.7c-0.3-0.8-0.8-1.2-1.6-1.2c-1.1,0-1.8,0.9-1.8,2.4s0.7,2.4,1.8,2.4c0.8,0,1.3-0.4,1.7-1.1
								l0.6,0.3c-0.4,0.8-1.2,1.4-2.2,1.4c-1.6,0-2.6-1.2-2.6-3c0-1.8,1-3,2.6-3c1.1,0,1.9,0.6,2.2,1.5L33.1,437.7z"/>
							<path class="st62" d="M39.8,440.3c-0.3,0.6-1,1.5-2.5,1.5c-1.6,0-2.6-1.1-2.6-3c0-1.7,1-3,2.6-3c1.7,0,2.5,1.3,2.5,3v0.1
								h-4.3v0.1c0,1.5,0.9,2.2,1.9,2.2c1.1,0,1.7-0.7,1.9-1.3L39.8,440.3z M35.4,438.3H39c0-0.9-0.6-1.9-1.7-1.9
								C36.2,436.4,35.5,437.2,35.4,438.3z"/>
							<path class="st62" d="M42,436v1.4h-1V436H42z M42,440.3v1.4h-1v-1.4H42z"/>
							<path class="st62" d="M47.5,441.7h-0.8v-8.2h0.8V441.7z"/>
							<path class="st62" d="M54.9,435.8c-0.4-0.9-1.1-1.7-2.4-1.7c-1.6,0-2.7,1.4-2.7,3.5c0,2.1,1,3.5,2.7,3.5
								c1.3,0,2.1-0.8,2.4-1.8l0.7,0.4c-0.4,1-1.2,2.1-3.1,2.1c-2.2,0-3.5-1.7-3.5-4.2s1.3-4.2,3.5-4.2c1.7,0,2.6,1,3,2L54.9,435.8z
								"/>
							<path class="st62" d="M60.7,441.7h-0.8v-8.2h0.8V441.7z"/>
							<path class="st62" d="M67.1,441.7h-0.7v-3.1c0-0.9-0.1-1.4-0.4-1.8c-0.2-0.2-0.6-0.4-1-0.4c-0.5,0-0.9,0.2-1.2,0.5
								c-0.3,0.3-0.5,0.9-0.5,1.3v3.4h-0.7V436h0.7v0.9h0c0.2-0.6,0.9-1.1,1.8-1.1c0.6,0,1.1,0.2,1.4,0.6c0.4,0.4,0.5,0.8,0.5,2.1
								V441.7z"/>
							<path class="st62" d="M72.2,437.2c-0.3-0.4-0.8-0.7-1.5-0.7c-0.7,0-1.3,0.3-1.3,0.9c0,0.6,0.4,0.8,1.1,1l0.8,0.2
								c1,0.2,1.7,0.6,1.7,1.6c0,1.1-0.9,1.7-2.2,1.7c-1.2,0-2-0.6-2.4-1.2l0.6-0.4c0.4,0.6,1,1,1.8,1c1,0,1.4-0.4,1.4-1.1
								c0-0.6-0.5-0.8-1.2-1l-0.8-0.2c-1-0.2-1.6-0.6-1.6-1.6c0-1,0.9-1.6,2-1.6c1,0,1.6,0.4,2.1,0.9L72.2,437.2z"/>
							<path class="st62" d="M75,434.7h-0.7v-1.2H75V434.7z M75,441.7h-0.7V436H75V441.7z"/>
							<path class="st62" d="M81.5,441.4c0,1.8-0.8,2.6-2.5,2.6c-1.6,0-2.2-0.8-2.3-1.9l0.7-0.2c0.1,0.8,0.5,1.5,1.6,1.5
								c1.6,0,1.8-1,1.8-2.3v-0.6c-0.3,0.7-0.9,1.1-1.9,1.1c-1.5,0-2.4-1.1-2.4-2.9c0-1.8,1-3,2.4-3c0.9,0,1.6,0.5,1.9,1.1V436h0.7
								V441.4z M79.1,436.4c-1.1,0-1.8,0.8-1.8,2.3c0,1.5,0.6,2.3,1.8,2.3c1.1,0,1.8-0.8,1.8-2.3C80.8,437.3,80.1,436.4,79.1,436.4z
								"/>
							<path class="st62" d="M87.8,441.7h-0.7v-3.1c0-0.9-0.1-1.4-0.4-1.8c-0.2-0.2-0.6-0.4-1-0.4c-0.5,0-0.9,0.2-1.2,0.5
								c-0.3,0.3-0.5,0.9-0.5,1.3v3.4h-0.7v-8.2h0.7v3.4c0.2-0.6,0.8-1.1,1.8-1.1c0.6,0,1.1,0.2,1.4,0.6c0.4,0.4,0.5,0.8,0.5,2.1
								V441.7z"/>
							<path class="st62" d="M88.9,436H90v-2.1l0.7-0.2v2.3h1.4v0.6h-1.4v3.8c0,0.6,0.2,0.8,0.6,0.8c0.3,0,0.6-0.1,0.7-0.2v0.6
								c-0.2,0.1-0.5,0.2-0.9,0.2c-0.7,0-1.2-0.3-1.2-1.3v-4h-1.2V436z"/>
							<path class="st62" d="M96.7,437.2c-0.3-0.4-0.8-0.7-1.5-0.7c-0.7,0-1.3,0.3-1.3,0.9c0,0.6,0.4,0.8,1.1,1l0.8,0.2
								c1,0.2,1.7,0.6,1.7,1.6c0,1.1-0.9,1.7-2.2,1.7c-1.2,0-2-0.6-2.4-1.2l0.6-0.4c0.4,0.6,1,1,1.8,1c1,0,1.4-0.4,1.4-1.1
								c0-0.6-0.5-0.8-1.2-1l-0.8-0.2c-1-0.2-1.6-0.6-1.6-1.6c0-1,0.9-1.6,2-1.6c1,0,1.6,0.4,2.1,0.9L96.7,437.2z"/>
							<path class="st62" d="M99.7,440.3v1.3c0,0.5-0.1,0.8-0.2,1.1c-0.2,0.4-0.4,0.6-0.9,0.7v-0.5c0.4-0.2,0.5-0.6,0.5-1.1v-0.1
								h-0.5v-1.4H99.7z M99.7,436v1.4h-1V436H99.7z"/>
							<path class="st62" d="M105.1,441.7h-0.8v-8.2h0.8V441.7z"/>
							<path class="st62" d="M113.5,441.7h-0.8v-3.9H108v3.9h-0.8v-8.2h0.8v3.6h4.8v-3.6h0.8V441.7z"/>
							<path class="st62" d="M120.2,435.1c-0.5-0.7-1.2-1.1-2.2-1.1c-1.1,0-1.9,0.6-1.9,1.5c0,0.9,0.6,1.2,1.6,1.5l1.1,0.3
								c1.4,0.3,2.3,0.8,2.3,2.2c0,1.4-1.1,2.4-3,2.4c-1.8,0-2.8-0.9-3.2-1.9l0.7-0.4c0.3,0.8,1.2,1.6,2.6,1.6
								c1.4,0,2.2-0.7,2.2-1.7c0-0.9-0.6-1.3-1.8-1.5l-1-0.2c-1.2-0.3-2.2-0.7-2.2-2.1c0-1.3,1.1-2.2,2.7-2.2c1.4,0,2.2,0.6,2.7,1.2
								L120.2,435.1z"/>
							<path class="st62" d="M129.4,441.7H129l-2-4.8c-0.3-0.8-0.7-2-0.8-2.4h0c0,0.4,0.1,2.1,0.1,2.8v4.4h-0.8v-8.2h0.9l2.4,5.8
								c0.2,0.6,0.4,0.9,0.5,1.2h0c0.1-0.3,0.2-0.7,0.4-1.2l2.3-5.8h0.9v8.2h-0.8v-4.2c0-0.7,0.1-2.8,0.1-3.2h0
								c-0.1,0.3-0.5,1.6-0.8,2.4L129.4,441.7z"/>
							<path class="st62" d="M138.8,437.7v2.9c0,0.5,0.2,0.7,0.5,0.7c0.1,0,0.3,0,0.3-0.1v0.5c-0.1,0-0.3,0.1-0.6,0.1
								c-0.6,0-0.9-0.2-0.9-0.9h0c-0.3,0.4-0.9,1-1.9,1c-1.1,0-1.9-0.6-1.9-1.6c0-1.2,1.1-1.5,2.4-1.8l0.6-0.1
								c0.6-0.1,0.8-0.2,0.8-0.7v0c0-0.7-0.4-1.2-1.4-1.2c-1,0-1.5,0.5-1.5,1.3l-0.7-0.1c0-1.1,0.9-1.8,2.2-1.8
								C137.9,435.9,138.8,436.2,138.8,437.7z M138.1,439.7v-1.1c-0.1,0.1-0.2,0.1-0.5,0.2l-1.4,0.3c-0.8,0.2-1.2,0.4-1.2,1.1
								c0,0.7,0.6,1.1,1.3,1.1C137.3,441.3,138.1,440.6,138.1,439.7z"/>
							<path class="st62" d="M143.5,436.6c-0.1,0-0.3,0-0.4,0c-1,0-1.7,0.8-1.7,1.9v3.2h-0.7V436h0.7v1.1h0c0.2-0.7,0.9-1.3,1.7-1.3
								c0.1,0,0.3,0,0.4,0V436.6z"/>
							<path class="st62" d="M149.7,441.7h-0.9l-2.1-3.1l-1.3,1.2v1.9h-0.7v-8.2h0.7v5.4l3.2-3h0.9l-2.3,2.1L149.7,441.7z"/>
							<path class="st62" d="M151.4,434.7h-0.7v-1.2h0.7V434.7z M151.4,441.7h-0.7V436h0.7V441.7z"/>
							<path class="st62" d="M152.5,436h1.2v-2.1l0.7-0.2v2.3h1.4v0.6h-1.4v3.8c0,0.6,0.2,0.8,0.6,0.8c0.3,0,0.6-0.1,0.7-0.2v0.6
								c-0.2,0.1-0.5,0.2-0.9,0.2c-0.7,0-1.2-0.3-1.2-1.3v-4h-1.2V436z"/>
							<path class="st62" d="M157.9,440.3v1.3c0,0.5-0.1,0.8-0.2,1.1c-0.2,0.4-0.4,0.6-0.9,0.7v-0.5c0.4-0.2,0.5-0.6,0.5-1.1v-0.1
								h-0.5v-1.4H157.9z M157.9,436v1.4h-1V436H157.9z"/>
							<path class="st62" d="M167.2,435.1c-0.5-0.7-1.2-1.1-2.2-1.1c-1.1,0-1.9,0.6-1.9,1.5c0,0.9,0.6,1.2,1.6,1.5l1.1,0.3
								c1.4,0.3,2.3,0.8,2.3,2.2c0,1.4-1.1,2.4-3,2.4c-1.8,0-2.8-0.9-3.2-1.9l0.7-0.4c0.3,0.8,1.2,1.6,2.6,1.6
								c1.4,0,2.2-0.7,2.2-1.7c0-0.9-0.6-1.3-1.8-1.5l-1-0.2c-1.2-0.3-2.2-0.7-2.2-2.1c0-1.3,1.1-2.2,2.7-2.2c1.4,0,2.2,0.6,2.7,1.2
								L167.2,435.1z"/>
							<path class="st62" d="M175.2,441.7h-5.6v-8.2h5.3v0.7h-4.6v3h4.2v0.7h-4.2v3.2h4.8V441.7z"/>
							<path class="st62" d="M180.6,441.7h-0.5l-2-4.8c-0.3-0.8-0.7-2-0.8-2.4h0c0,0.4,0.1,2.1,0.1,2.8v4.4h-0.8v-8.2h0.9l2.4,5.8
								c0.2,0.6,0.4,0.9,0.5,1.2h0c0.1-0.3,0.2-0.7,0.4-1.2l2.3-5.8h0.9v8.2h-0.8v-4.2c0-0.7,0.1-2.8,0.1-3.2h0
								c-0.1,0.3-0.5,1.6-0.8,2.4L180.6,441.7z"/>
							<path class="st62" d="M186.9,441.7h-0.8v-8.2h0.8V441.7z"/>
							<path class="st62" d="M197.9,441.7l-1.4-4.9c-0.2-0.6-0.4-1.5-0.5-1.8c-0.1,0.4-0.3,1.1-0.5,1.8l-1.4,4.9h-0.8l-2.2-8.2h0.8
								l1.5,5.6c0.1,0.6,0.3,1.1,0.4,1.3c0.1-0.4,0.3-1.3,0.5-1.8l1.5-5.2h0.6l1.6,5.6c0.2,0.6,0.4,1.3,0.4,1.3
								c0.1-0.4,0.3-1.2,0.5-1.8l1.4-5.1h0.8l-2.3,8.2H197.9z"/>
							<path class="st62" d="M204.3,435.8c1.6,0,2.6,1.2,2.6,3c0,1.8-1,3-2.6,3s-2.6-1.2-2.6-3C201.7,437,202.7,435.8,204.3,435.8z
								 M204.3,441.2c1.1,0,1.8-0.9,1.8-2.4c0-1.5-0.7-2.4-1.8-2.4s-1.8,0.9-1.8,2.4S203.2,441.2,204.3,441.2z"/>
							<path class="st62" d="M211.2,436.6c-0.1,0-0.3,0-0.4,0c-1,0-1.7,0.8-1.7,1.9v3.2h-0.7V436h0.7v1.1h0c0.2-0.7,0.9-1.3,1.7-1.3
								c0.1,0,0.3,0,0.4,0V436.6z"/>
							<path class="st62" d="M213.1,441.7h-0.7v-8.2h0.7V441.7z"/>
							<path class="st62" d="M214.6,438.8c0-1.9,1-3,2.4-3c0.9,0,1.6,0.5,1.9,1.2v-3.5h0.7v8.2h-0.7v-1c-0.3,0.7-0.9,1.2-1.9,1.2
								C215.5,441.8,214.6,440.8,214.6,438.8z M217.1,436.4c-1.1,0-1.8,0.8-1.8,2.4c0,1.5,0.6,2.4,1.8,2.4c1.1,0,1.8-0.8,1.8-2.4
								C218.9,437.3,218.2,436.4,217.1,436.4z"/>
							<path class="st62" d="M224.4,441.7v-8.2h5.3v0.7h-4.5v2.9h4.1v0.7h-4.1v3.9H224.4z"/>
							<path class="st62" d="M234.9,437.7v2.9c0,0.5,0.2,0.7,0.5,0.7c0.1,0,0.3,0,0.3-0.1v0.5c-0.1,0-0.3,0.1-0.6,0.1
								c-0.6,0-0.9-0.2-0.9-0.9h0c-0.3,0.4-0.9,1-1.9,1c-1.1,0-1.9-0.6-1.9-1.6c0-1.2,1.1-1.5,2.4-1.8l0.6-0.1
								c0.6-0.1,0.8-0.2,0.8-0.7v0c0-0.7-0.4-1.2-1.4-1.2c-1,0-1.5,0.5-1.5,1.3l-0.7-0.1c0-1.1,0.9-1.8,2.2-1.8
								C233.9,435.9,234.9,436.2,234.9,437.7z M234.2,439.7v-1.1c-0.1,0.1-0.2,0.1-0.5,0.2l-1.4,0.3c-0.8,0.2-1.2,0.4-1.2,1.1
								c0,0.7,0.6,1.1,1.3,1.1C233.4,441.3,234.2,440.6,234.2,439.7z"/>
							<path class="st62" d="M237.4,440.7v1h-0.7v-8.2h0.7v3.5c0.3-0.6,0.9-1.2,1.9-1.2c1.4,0,2.4,1.1,2.4,3c0,1.9-1,3-2.4,3
								C238.4,441.8,237.7,441.3,237.4,440.7z M239.2,441.2c1.1,0,1.8-0.9,1.8-2.4c0-1.5-0.7-2.4-1.8-2.4c-1.1,0-1.8,0.8-1.8,2.4
								C237.4,440.4,238.1,441.2,239.2,441.2z"/>
							<path class="st62" d="M246.1,441.7v-8.2h5.3v0.7h-4.5v2.9h4.1v0.7h-4.1v3.9H246.1z"/>
							<path class="st62" d="M254.8,435.8c1.6,0,2.6,1.2,2.6,3c0,1.8-1,3-2.6,3s-2.6-1.2-2.6-3C252.2,437,253.2,435.8,254.8,435.8z
								 M254.8,441.2c1.1,0,1.8-0.9,1.8-2.4c0-1.5-0.7-2.4-1.8-2.4s-1.8,0.9-1.8,2.4S253.7,441.2,254.8,441.2z"/>
							<path class="st62" d="M261.7,436.6c-0.1,0-0.3,0-0.4,0c-1,0-1.7,0.8-1.7,1.9v3.2h-0.7V436h0.7v1.1h0c0.2-0.7,0.9-1.3,1.7-1.3
								c0.1,0,0.3,0,0.4,0V436.6z"/>
							<path class="st62" d="M267.6,440.3c-0.3,0.6-1,1.5-2.5,1.5c-1.6,0-2.6-1.1-2.6-3c0-1.7,1-3,2.6-3c1.7,0,2.5,1.3,2.5,3v0.1
								h-4.3v0.1c0,1.5,0.9,2.2,1.9,2.2c1.1,0,1.7-0.7,1.9-1.3L267.6,440.3z M263.3,438.3h3.5c0-0.9-0.6-1.9-1.7-1.9
								C264,436.4,263.3,437.2,263.3,438.3z"/>
							<path class="st62" d="M272.9,437.7c-0.3-0.8-0.8-1.2-1.6-1.2c-1.1,0-1.8,0.9-1.8,2.4s0.7,2.4,1.8,2.4c0.8,0,1.3-0.4,1.7-1.1
								l0.6,0.3c-0.4,0.8-1.2,1.4-2.2,1.4c-1.6,0-2.6-1.2-2.6-3c0-1.8,1-3,2.6-3c1.1,0,1.9,0.6,2.2,1.5L272.9,437.7z"/>
							<path class="st62" d="M278.8,437.7v2.9c0,0.5,0.2,0.7,0.5,0.7c0.1,0,0.3,0,0.3-0.1v0.5c-0.1,0-0.3,0.1-0.6,0.1
								c-0.6,0-0.9-0.2-0.9-0.9h0c-0.3,0.4-0.9,1-1.9,1c-1.1,0-1.9-0.6-1.9-1.6c0-1.2,1.1-1.5,2.4-1.8l0.6-0.1
								c0.6-0.1,0.8-0.2,0.8-0.7v0c0-0.7-0.4-1.2-1.4-1.2c-1,0-1.5,0.5-1.5,1.3l-0.7-0.1c0-1.1,0.9-1.8,2.2-1.8
								C277.9,435.9,278.8,436.2,278.8,437.7z M278.1,439.7v-1.1c-0.1,0.1-0.2,0.1-0.5,0.2l-1.4,0.3c-0.8,0.2-1.2,0.4-1.2,1.1
								c0,0.7,0.6,1.1,1.3,1.1C277.3,441.3,278.1,440.6,278.1,439.7z"/>
							<path class="st62" d="M283.9,437.2c-0.3-0.4-0.8-0.7-1.5-0.7c-0.7,0-1.3,0.3-1.3,0.9c0,0.6,0.4,0.8,1.1,1l0.8,0.2
								c1,0.2,1.7,0.6,1.7,1.6c0,1.1-0.9,1.7-2.2,1.7c-1.2,0-2-0.6-2.4-1.2l0.6-0.4c0.4,0.6,1,1,1.8,1c1,0,1.4-0.4,1.4-1.1
								c0-0.6-0.5-0.8-1.2-1l-0.8-0.2c-1-0.2-1.6-0.6-1.6-1.6c0-1,0.9-1.6,2-1.6c1,0,1.6,0.4,2.1,0.9L283.9,437.2z"/>
							<path class="st62" d="M285.3,436h1.2v-2.1l0.7-0.2v2.3h1.4v0.6h-1.4v3.8c0,0.6,0.2,0.8,0.6,0.8c0.3,0,0.6-0.1,0.7-0.2v0.6
								c-0.2,0.1-0.5,0.2-0.9,0.2c-0.7,0-1.2-0.3-1.2-1.3v-4h-1.2V436z"/>
							<path class="st62" d="M292.3,438.8c0-1.9,1-3,2.4-3c0.9,0,1.6,0.5,1.9,1.2v-3.5h0.7v8.2h-0.7v-1c-0.3,0.7-0.9,1.2-1.9,1.2
								C293.3,441.8,292.3,440.8,292.3,438.8z M294.8,436.4c-1.1,0-1.8,0.8-1.8,2.4c0,1.5,0.6,2.4,1.8,2.4c1.1,0,1.8-0.8,1.8-2.4
								C296.6,437.3,295.9,436.4,294.8,436.4z"/>
							<path class="st62" d="M303.2,437.7v2.9c0,0.5,0.2,0.7,0.5,0.7c0.1,0,0.3,0,0.3-0.1v0.5c-0.1,0-0.3,0.1-0.6,0.1
								c-0.6,0-0.9-0.2-0.9-0.9h0c-0.3,0.4-0.9,1-1.9,1c-1.1,0-1.9-0.6-1.9-1.6c0-1.2,1.1-1.5,2.4-1.8l0.6-0.1
								c0.6-0.1,0.8-0.2,0.8-0.7v0c0-0.7-0.4-1.2-1.4-1.2c-1,0-1.5,0.5-1.5,1.3l-0.7-0.1c0-1.1,0.9-1.8,2.2-1.8
								C302.2,435.9,303.2,436.2,303.2,437.7z M302.5,439.7v-1.1c-0.1,0.1-0.2,0.1-0.5,0.2l-1.4,0.3c-0.8,0.2-1.2,0.4-1.2,1.1
								c0,0.7,0.6,1.1,1.3,1.1C301.7,441.3,302.5,440.6,302.5,439.7z"/>
							<path class="st62" d="M304.3,436h1.2v-2.1l0.7-0.2v2.3h1.4v0.6h-1.4v3.8c0,0.6,0.2,0.8,0.6,0.8c0.3,0,0.6-0.1,0.7-0.2v0.6
								c-0.2,0.1-0.5,0.2-0.9,0.2c-0.7,0-1.2-0.3-1.2-1.3v-4h-1.2V436z"/>
							<path class="st62" d="M312.8,437.7v2.9c0,0.5,0.2,0.7,0.5,0.7c0.1,0,0.3,0,0.3-0.1v0.5c-0.1,0-0.3,0.1-0.6,0.1
								c-0.6,0-0.9-0.2-0.9-0.9h0c-0.3,0.4-0.9,1-1.9,1c-1.1,0-1.9-0.6-1.9-1.6c0-1.2,1.1-1.5,2.4-1.8l0.6-0.1
								c0.6-0.1,0.8-0.2,0.8-0.7v0c0-0.7-0.4-1.2-1.4-1.2c-1,0-1.5,0.5-1.5,1.3l-0.7-0.1c0-1.1,0.9-1.8,2.2-1.8
								C311.9,435.9,312.8,436.2,312.8,437.7z M312.1,439.7v-1.1c-0.1,0.1-0.2,0.1-0.5,0.2l-1.4,0.3c-0.8,0.2-1.2,0.4-1.2,1.1
								c0,0.7,0.6,1.1,1.3,1.1C311.3,441.3,312.1,440.6,312.1,439.7z"/>
							<path class="st62" d="M315.4,440.7v1h-0.7v-8.2h0.7v3.5c0.3-0.6,0.9-1.2,1.9-1.2c1.4,0,2.4,1.1,2.4,3c0,1.9-1,3-2.4,3
								C316.3,441.8,315.7,441.3,315.4,440.7z M317.1,441.2c1.1,0,1.8-0.9,1.8-2.4c0-1.5-0.7-2.4-1.8-2.4c-1.1,0-1.8,0.8-1.8,2.4
								C315.4,440.4,316,441.2,317.1,441.2z"/>
							<path class="st62" d="M325.2,437.7v2.9c0,0.5,0.2,0.7,0.5,0.7c0.1,0,0.3,0,0.3-0.1v0.5c-0.1,0-0.3,0.1-0.6,0.1
								c-0.6,0-0.9-0.2-0.9-0.9h0c-0.3,0.4-0.9,1-1.9,1c-1.1,0-1.9-0.6-1.9-1.6c0-1.2,1.1-1.5,2.4-1.8l0.6-0.1
								c0.6-0.1,0.8-0.2,0.8-0.7v0c0-0.7-0.4-1.2-1.4-1.2c-1,0-1.5,0.5-1.5,1.3l-0.7-0.1c0-1.1,0.9-1.8,2.2-1.8
								C324.2,435.9,325.2,436.2,325.2,437.7z M324.5,439.7v-1.1c-0.1,0.1-0.2,0.1-0.5,0.2l-1.4,0.3c-0.8,0.2-1.2,0.4-1.2,1.1
								c0,0.7,0.6,1.1,1.3,1.1C323.7,441.3,324.5,440.6,324.5,439.7z"/>
							<path class="st62" d="M330.2,437.2c-0.3-0.4-0.8-0.7-1.5-0.7c-0.7,0-1.3,0.3-1.3,0.9c0,0.6,0.4,0.8,1.1,1l0.8,0.2
								c1,0.2,1.7,0.6,1.7,1.6c0,1.1-0.9,1.7-2.2,1.7c-1.2,0-2-0.6-2.4-1.2l0.6-0.4c0.4,0.6,1,1,1.8,1c1,0,1.4-0.4,1.4-1.1
								c0-0.6-0.5-0.8-1.2-1l-0.8-0.2c-1-0.2-1.6-0.6-1.6-1.6c0-1,0.9-1.6,2-1.6c1,0,1.6,0.4,2.1,0.9L330.2,437.2z"/>
							<path class="st62" d="M337.1,440.3c-0.3,0.6-1,1.5-2.5,1.5c-1.6,0-2.6-1.1-2.6-3c0-1.7,1-3,2.6-3c1.7,0,2.5,1.3,2.5,3v0.1
								h-4.3v0.1c0,1.5,0.9,2.2,1.9,2.2c1.1,0,1.7-0.7,1.9-1.3L337.1,440.3z M332.7,438.3h3.6c0-0.9-0.6-1.9-1.7-1.9
								C333.5,436.4,332.8,437.2,332.7,438.3z"/>
						</g>
					</g>
				</g>
			</g>
		</g>
	</g>
	<g>
		<g>
			<g id="Glance_2_lines_00000170259058208593360730000002000130388401073543_">
				<g id="Glance_00000106845989658498795170000015676788873080171172_">
					<g id="Glance_00000133502723161260315990000005152817363180172968_">
						
							<g id="_Jobs_in_advanced_economies_are_increasingly_for_high-skill_workers._00000032632579861239058070000015913114304191247533_">
							<g>
								<path d="M6.6,13.5v6.3H3.8V4.1h5.7c1.3,0,2.7,0,3.9,0.7c1.4,0.8,2.2,2.1,2.2,4c0,1.7-0.8,3-2.1,3.8
									c-0.4,0.2-0.9,0.4-1.2,0.6l3.9,6.5H13l-3.6-6.3H6.6z M6.6,11h3c1.1,0,1.7-0.1,2.2-0.3c0.7-0.3,1.1-1.1,1.1-2
									s-0.4-1.6-1.1-1.9c-0.5-0.2-1.1-0.3-2.2-0.3h-3V11z"/>
								<path d="M28.2,17.3c-0.5,0.8-2,2.8-5.2,2.8c-3.2,0-5.4-2.3-5.4-5.8c0-3.4,2.3-5.6,5.4-5.6c3.5,0,5.2,2.4,5.2,5.8
									c0,0.2,0,0.5,0,0.7h-8c0.2,1.5,1.1,2.8,3,2.8c2,0,2.9-1.3,3.2-1.9L28.2,17.3z M20.3,13h5.3c-0.1-1.4-1.1-2.4-2.6-2.4
									C21.3,10.6,20.3,11.7,20.3,13z"/>
								<path d="M32.9,20.3c0.1,1,0.6,2,2.5,2c2,0,2.7-0.8,2.7-2.9v-1h0c-0.4,0.5-1.3,1.4-3.2,1.4c-3,0-4.8-2.2-4.8-5.5
									c0-3.4,1.8-5.7,4.8-5.7c1.5,0,2.7,0.7,3.3,1.4V8.8h2.6v10.3c0,1.2-0.1,1.9-0.3,2.6c-0.7,1.8-2.4,2.6-5.1,2.6
									c-3.4,0-4.9-1.5-5-3.8L32.9,20.3z M35.4,10.8c-1.8,0-2.8,1.2-2.8,3.4s1,3.4,2.8,3.4c1.7,0,2.8-1.3,2.8-3.4
									C38.2,12.1,37.1,10.8,35.4,10.8z"/>
								<path d="M46.4,6.8h-2.6V4.1h2.6V6.8z M46.4,19.7h-2.6V8.8h2.6V19.7z"/>
								<path d="M54.3,8.5c3.3,0,5.5,2.3,5.5,5.8c0,3.5-2.1,5.7-5.5,5.7c-3.4,0-5.5-2.2-5.5-5.7C48.8,10.8,50.9,8.5,54.3,8.5z
									 M54.3,17.8c1.7,0,2.9-1.3,2.9-3.5c0-2.2-1.1-3.5-2.9-3.5s-2.9,1.3-2.9,3.5S52.6,17.8,54.3,17.8z"/>
								<path d="M71.9,19.7h-2.6v-5.5c0-0.8,0-1.5-0.2-2.1c-0.2-0.8-0.8-1.3-1.9-1.3c-1.6,0-2.4,1.3-2.4,3v5.8h-2.6V8.8h2.6v1.4
									c0.5-1,1.7-1.7,3.4-1.7c1.2,0,2.3,0.4,3,1.4c0.5,0.7,0.7,1.5,0.7,3.7V19.7z"/>
								<path d="M83.7,17.3c0,0.6,0.1,0.9,0.6,0.9h0.2v1.6c-0.3,0.1-0.6,0.1-1.3,0.1c-1,0-1.6-0.3-1.8-1.1C80.9,19.3,80,20,78.1,20
									c-2.3,0-3.9-1.1-3.9-3.3c0-2.6,2-3.1,5.3-3.7l0.8-0.1c0.6-0.1,0.9-0.3,0.9-0.7V12c0-0.9-0.6-1.4-2-1.4
									c-1.4,0-2.2,0.6-2.2,1.9l-2.5-0.1c0-2.7,2.1-3.8,4.8-3.8c2.5,0,4.4,0.9,4.4,3.3V17.3z M81.2,15.8v-1.4
									c-0.3,0.1-0.5,0.2-0.9,0.3l-1.5,0.3c-1.3,0.3-1.9,0.6-1.9,1.5c0,0.9,0.6,1.4,1.9,1.4C80.1,18.1,81.2,17.4,81.2,15.8z"/>
								<path d="M89.4,19.7h-2.6V4.1h2.6V19.7z"/>
								<path d="M104.5,11.9c-0.8-0.7-1.8-1.2-3.1-1.2c-1,0-1.8,0.4-1.8,1.1c0,0.8,0.8,0.9,2.3,1.3l1.3,0.3c1.7,0.4,3.2,1,3.2,3
									c0,2.5-2.3,3.7-4.8,3.7c-2.6,0-4.4-1.3-5.1-2.2l1.8-1.6c0.6,0.8,1.7,1.6,3.4,1.6c1.3,0,2.1-0.5,2.1-1.2
									c0-0.8-0.6-0.9-1.7-1.1l-1.6-0.3c-1.9-0.4-3.4-1.2-3.4-3.2c0-2.4,2.3-3.4,4.4-3.4c2.2,0,3.9,0.9,4.6,1.7L104.5,11.9z"/>
								<path d="M118.5,17.3c-0.5,0.8-2,2.8-5.2,2.8c-3.2,0-5.4-2.3-5.4-5.8c0-3.4,2.3-5.6,5.4-5.6c3.5,0,5.2,2.4,5.2,5.8
									c0,0.2,0,0.5,0,0.7h-8c0.2,1.5,1.1,2.8,3,2.8c2,0,2.9-1.3,3.2-1.9L118.5,17.3z M110.6,13h5.3c-0.1-1.4-1.1-2.4-2.6-2.4
									C111.6,10.6,110.6,11.7,110.6,13z"/>
								<path d="M130.2,10.3c0.7-0.8,1.8-1.7,3.7-1.7c1.4,0,2.3,0.4,2.9,1.1c0.7,0.8,1,1.5,1,4v6.2h-2.6v-5.5c0-2-0.1-3.4-2.1-3.4
									c-1.6,0-2.4,1.3-2.4,3v5.8h-2.6v-5.5c0-2-0.1-3.4-2.1-3.4c-1.6,0-2.4,1.3-2.4,3v5.8H121V8.8h2.6v1.4
									c0.5-0.9,1.7-1.7,3.4-1.7c1.1,0,2.1,0.3,2.7,1.1C129.9,9.8,130,10,130.2,10.3z"/>
								<path d="M143.4,6.8h-2.6V4.1h2.6V6.8z M143.4,19.7h-2.6V8.8h2.6V19.7z"/>
								<path d="M153.8,12.8c-0.4-1.2-1.2-2-2.6-2c-1.7,0-2.9,1.3-2.9,3.5s1.1,3.5,2.9,3.5c1.5,0,2.2-0.9,2.6-1.9L156,17
									c-0.5,1.2-2,3-4.8,3c-3.2,0-5.4-2-5.4-5.7c0-3.7,2.4-5.8,5.4-5.8c2.6,0,4.1,1.4,4.8,3.1L153.8,12.8z"/>
								<path d="M162.9,8.5c3.3,0,5.5,2.3,5.5,5.8c0,3.5-2.1,5.7-5.5,5.7c-3.4,0-5.5-2.2-5.5-5.7C157.4,10.8,159.5,8.5,162.9,8.5z
									 M162.9,17.8c1.7,0,2.9-1.3,2.9-3.5c0-2.2-1.1-3.5-2.9-3.5s-2.9,1.3-2.9,3.5S161.2,17.8,162.9,17.8z"/>
								<path d="M180.5,19.7h-2.6v-5.5c0-0.8,0-1.5-0.2-2.1c-0.2-0.8-0.8-1.3-1.9-1.3c-1.6,0-2.4,1.3-2.4,3v5.8h-2.6V8.8h2.6v1.4
									c0.5-1,1.7-1.7,3.4-1.7c1.2,0,2.3,0.4,3,1.4c0.5,0.7,0.7,1.5,0.7,3.7V19.7z"/>
								<path d="M182.8,14.3c0-3.4,1.9-5.8,4.9-5.8c1.4,0,2.6,0.7,3.2,1.4V4.1h2.6v15.6h-2.6v-1.1c-0.7,0.9-1.7,1.4-3.2,1.4
									C184.7,20,182.8,17.6,182.8,14.3z M188.2,10.8c-1.7,0-2.8,1.3-2.8,3.5c0,2.2,1.1,3.5,2.8,3.5c1.7,0,2.8-1.4,2.8-3.5
									C191,12.2,189.8,10.8,188.2,10.8z"/>
								<path d="M196.5,8.8h2.6v6.1c0,1.7,0.4,2.8,2,2.8c1.6,0,2.3-1.3,2.3-3V8.8h2.6v10.9h-2.6v-1.4c-0.5,0.9-1.7,1.7-3.3,1.7
									c-1.5,0-3.6-0.6-3.6-4.3V8.8z"/>
								<path d="M216.4,12.8c-0.4-1.2-1.2-2-2.6-2c-1.7,0-2.9,1.3-2.9,3.5s1.1,3.5,2.9,3.5c1.5,0,2.2-0.9,2.6-1.9l2.1,1.1
									c-0.5,1.2-2,3-4.8,3c-3.2,0-5.4-2-5.4-5.7c0-3.7,2.4-5.8,5.4-5.8c2.6,0,4.1,1.4,4.8,3.1L216.4,12.8z"/>
								<path d="M227,19.8c-0.5,0.1-1.2,0.2-2,0.2c-1.1,0-2.2-0.2-2.8-0.9c-0.4-0.5-0.5-1.1-0.5-2.2v-6h-2.3v-2h2.3V5l2.6-0.6v4.4
									h2.6v2h-2.6v5.6c0,0.6,0.1,0.9,0.3,1.1c0.2,0.2,0.6,0.3,1.1,0.3s0.9,0,1.1-0.1V19.8z"/>
								<path d="M234,8.5c3.3,0,5.5,2.3,5.5,5.8c0,3.5-2.1,5.7-5.5,5.7c-3.4,0-5.5-2.2-5.5-5.7C228.5,10.8,230.7,8.5,234,8.5z
									 M234,17.8c1.7,0,2.9-1.3,2.9-3.5c0-2.2-1.1-3.5-2.9-3.5s-2.9,1.3-2.9,3.5S232.3,17.8,234,17.8z"/>
								<path d="M244.5,8.8v1.6c0.2-0.6,1.1-1.9,3.2-1.9c0.1,0,0.2,0,0.4,0v2.7c-0.3,0-0.5,0-0.7,0c-1.4,0-2.2,0.5-2.6,1.5
									c-0.2,0.6-0.3,1.2-0.3,2.2v4.9h-2.6V8.8H244.5z"/>
								<path d="M262.4,12.8c-0.4-1.2-1.2-2-2.6-2c-1.7,0-2.9,1.3-2.9,3.5s1.1,3.5,2.9,3.5c1.5,0,2.2-0.9,2.6-1.9l2.1,1.1
									c-0.5,1.2-2,3-4.8,3c-3.2,0-5.4-2-5.4-5.7c0-3.7,2.4-5.8,5.4-5.8c2.6,0,4.1,1.4,4.8,3.1L262.4,12.8z"/>
								<path d="M276.5,19.7h-2.6v-5.5c0-0.8,0-1.5-0.2-2.1c-0.2-0.8-0.8-1.3-1.9-1.3c-1.6,0-2.4,1.3-2.4,3v5.8h-2.6V4.1h2.6v6.1
									c0.5-1,1.7-1.7,3.4-1.7c1.2,0,2.3,0.4,3,1.4c0.5,0.7,0.7,1.5,0.7,3.7V19.7z"/>
								<path d="M282.2,6.8h-2.6V4.1h2.6V6.8z M282.2,19.7h-2.6V8.8h2.6V19.7z"/>
								<path d="M287.9,18.6v5.5h-2.6V8.8h2.6V10c0.6-0.8,1.8-1.5,3.2-1.5c3,0,4.9,2.3,4.9,5.8c0,3.3-1.9,5.7-4.9,5.7
									C289.7,20,288.6,19.4,287.9,18.6z M290.6,17.7c1.7,0,2.8-1.3,2.8-3.5c0-2.2-1.1-3.5-2.8-3.5c-1.7,0-2.8,1.4-2.8,3.5
									C287.8,16.4,288.9,17.7,290.6,17.7z"/>
								<path d="M306.1,18.6v5.5h-2.6V8.8h2.6V10c0.6-0.8,1.8-1.5,3.2-1.5c3,0,4.9,2.3,4.9,5.8c0,3.3-1.9,5.7-4.9,5.7
									C307.8,20,306.8,19.4,306.1,18.6z M308.7,17.7c1.7,0,2.8-1.3,2.8-3.5c0-2.2-1.1-3.5-2.8-3.5c-1.7,0-2.8,1.4-2.8,3.5
									C306,16.4,307.1,17.7,308.7,17.7z"/>
								<path d="M319.2,8.8v1.6c0.2-0.6,1.1-1.9,3.2-1.9c0.1,0,0.2,0,0.4,0v2.7c-0.3,0-0.5,0-0.7,0c-1.4,0-2.2,0.5-2.6,1.5
									c-0.2,0.6-0.3,1.2-0.3,2.2v4.9h-2.6V8.8H319.2z"/>
								<path d="M329.5,8.5c3.3,0,5.5,2.3,5.5,5.8c0,3.5-2.1,5.7-5.5,5.7c-3.4,0-5.5-2.2-5.5-5.7C324.1,10.8,326.2,8.5,329.5,8.5z
									 M329.5,17.8c1.7,0,2.9-1.3,2.9-3.5c0-2.2-1.1-3.5-2.9-3.5c-1.7,0-2.9,1.3-2.9,3.5S327.9,17.8,329.5,17.8z"/>
								<path d="M336.7,14.3c0-3.4,1.9-5.8,4.9-5.8c1.4,0,2.6,0.7,3.2,1.4V4.1h2.6v15.6h-2.6v-1.1c-0.7,0.9-1.7,1.4-3.2,1.4
									C338.6,20,336.7,17.6,336.7,14.3z M342.1,10.8c-1.7,0-2.8,1.3-2.8,3.5c0,2.2,1.1,3.5,2.8,3.5c1.7,0,2.8-1.4,2.8-3.5
									C344.9,12.2,343.8,10.8,342.1,10.8z"/>
								<path d="M350.4,8.8h2.6v6.1c0,1.7,0.4,2.8,2,2.8c1.6,0,2.3-1.3,2.3-3V8.8h2.6v10.9h-2.6v-1.4c-0.5,0.9-1.7,1.7-3.3,1.7
									c-1.5,0-3.6-0.6-3.6-4.3V8.8z"/>
								<path d="M370.3,12.8c-0.4-1.2-1.2-2-2.6-2c-1.7,0-2.9,1.3-2.9,3.5s1.1,3.5,2.9,3.5c1.5,0,2.2-0.9,2.6-1.9l2.1,1.1
									c-0.5,1.2-2,3-4.8,3c-3.2,0-5.4-2-5.4-5.7c0-3.7,2.4-5.8,5.4-5.8c2.6,0,4.1,1.4,4.8,3.1L370.3,12.8z"/>
								<path d="M380.9,19.8c-0.5,0.1-1.2,0.2-2,0.2c-1.1,0-2.2-0.2-2.8-0.9c-0.4-0.5-0.5-1.1-0.5-2.2v-6h-2.3v-2h2.3V5l2.6-0.6v4.4
									h2.6v2h-2.6v5.6c0,0.6,0.1,0.9,0.3,1.1c0.2,0.2,0.6,0.3,1.1,0.3s0.9,0,1.1-0.1V19.8z"/>
								<path d="M385.8,6.8h-2.6V4.1h2.6V6.8z M385.8,19.7h-2.6V8.8h2.6V19.7z"/>
								<path d="M393.7,8.5c3.3,0,5.5,2.3,5.5,5.8c0,3.5-2.1,5.7-5.5,5.7c-3.4,0-5.5-2.2-5.5-5.7C388.2,10.8,390.3,8.5,393.7,8.5z
									 M393.7,17.8c1.7,0,2.9-1.3,2.9-3.5c0-2.2-1.2-3.5-2.9-3.5s-2.9,1.3-2.9,3.5S392,17.8,393.7,17.8z"/>
								<path d="M411.3,19.7h-2.6v-5.5c0-0.8,0-1.5-0.2-2.1c-0.2-0.8-0.8-1.3-1.9-1.3c-1.6,0-2.4,1.3-2.4,3v5.8h-2.6V8.8h2.6v1.4
									c0.5-1,1.7-1.7,3.4-1.7c1.2,0,2.3,0.4,3,1.4c0.5,0.7,0.7,1.5,0.7,3.7V19.7z"/>
								<path d="M428,8.8l-3.6,10.9h-2.7l-3.6-10.9h2.7l1.7,5.7c0.3,1.1,0.6,2.2,0.6,2.2h0c0,0,0.2-1.1,0.6-2.3l1.6-5.6H428z"/>
								<path d="M438.7,17.3c0,0.6,0.1,0.9,0.6,0.9h0.2v1.6c-0.3,0.1-0.6,0.1-1.3,0.1c-1,0-1.6-0.3-1.8-1.1
									c-0.5,0.5-1.4,1.2-3.3,1.2c-2.3,0-3.9-1.1-3.9-3.3c0-2.6,2-3.1,5.3-3.7l0.8-0.1c0.6-0.1,0.9-0.3,0.9-0.7V12
									c0-0.9-0.6-1.4-2-1.4c-1.4,0-2.2,0.6-2.2,1.9l-2.5-0.1c0-2.7,2.1-3.8,4.8-3.8c2.5,0,4.4,0.9,4.4,3.3V17.3z M436.2,15.8v-1.4
									c-0.3,0.1-0.5,0.2-0.9,0.3l-1.5,0.3c-1.3,0.3-1.9,0.6-1.9,1.5c0,0.9,0.6,1.4,1.9,1.4C435.1,18.1,436.2,17.4,436.2,15.8z"/>
								<path d="M444.4,8.8v1.6c0.2-0.6,1.1-1.9,3.2-1.9c0.1,0,0.2,0,0.4,0v2.7c-0.3,0-0.5,0-0.7,0c-1.4,0-2.2,0.5-2.6,1.5
									c-0.2,0.6-0.3,1.2-0.3,2.2v4.9h-2.6V8.8H444.4z"/>
								<path d="M452.6,6.8H450V4.1h2.6V6.8z M452.6,19.7H450V8.8h2.6V19.7z"/>
								<path d="M465.6,17.3c-0.5,0.8-2,2.8-5.2,2.8c-3.2,0-5.4-2.3-5.4-5.8c0-3.4,2.3-5.6,5.4-5.6c3.5,0,5.2,2.4,5.2,5.8
									c0,0.2,0,0.5,0,0.7h-8c0.2,1.5,1.1,2.8,3,2.8c2,0,2.9-1.3,3.2-1.9L465.6,17.3z M457.6,13h5.3c-0.1-1.4-1.1-2.4-2.6-2.4
									C458.7,10.6,457.7,11.7,457.6,13z"/>
								<path d="M475,11.9c-0.8-0.7-1.8-1.2-3.1-1.2c-1,0-1.8,0.4-1.8,1.1c0,0.8,0.8,0.9,2.3,1.3l1.3,0.3c1.7,0.4,3.2,1,3.2,3
									c0,2.5-2.3,3.7-4.8,3.7c-2.6,0-4.4-1.3-5.1-2.2l1.8-1.6c0.6,0.8,1.7,1.6,3.4,1.6c1.3,0,2.1-0.5,2.1-1.2
									c0-0.8-0.6-0.9-1.7-1.1l-1.6-0.3c-1.9-0.4-3.4-1.2-3.4-3.2c0-2.4,2.3-3.4,4.4-3.4c2.2,0,3.9,0.9,4.6,1.7L475,11.9z"/>
								<path d="M486.8,18.6v1.1h-2.6V4.1h2.6V10c0.6-0.8,1.8-1.5,3.2-1.5c3,0,4.9,2.4,4.9,5.8c0,3.3-1.9,5.7-4.9,5.7
									C488.6,20,487.5,19.4,486.8,18.6z M489.5,17.7c1.7,0,2.8-1.3,2.8-3.5c0-2.2-1.1-3.5-2.8-3.5c-1.7,0-2.8,1.4-2.8,3.5
									S487.8,17.7,489.5,17.7z"/>
								<path d="M505.8,8.8l-3.7,12.3c-0.4,1.2-0.7,1.9-1.1,2.4c-0.6,0.6-1.3,0.9-2.6,0.9c-0.7,0-1.1-0.1-1.4-0.1V22
									c0.3,0.1,0.6,0.1,0.9,0.1c1.1,0,1.5-0.5,1.7-1.4l0.2-0.7l-3.9-11.3h2.8l1.8,5.9c0.3,1,0.6,2.3,0.6,2.3h0
									c0,0,0.3-1.2,0.6-2.3l1.6-5.9H505.8z"/>
								<path d="M522.7,19.7H520v-5.5c0-0.8,0-1.5-0.2-2.1c-0.2-0.8-0.8-1.3-1.9-1.3c-1.6,0-2.4,1.3-2.4,3v5.8h-2.6V8.8h2.6v1.4
									c0.5-1,1.7-1.7,3.4-1.7c1.2,0,2.3,0.4,3,1.4c0.5,0.7,0.7,1.5,0.7,3.7V19.7z"/>
								<path d="M530.4,8.5c3.3,0,5.5,2.3,5.5,5.8c0,3.5-2.1,5.7-5.5,5.7s-5.5-2.2-5.5-5.7C524.9,10.8,527.1,8.5,530.4,8.5z
									 M530.4,17.8c1.7,0,2.9-1.3,2.9-3.5c0-2.2-1.2-3.5-2.9-3.5s-2.9,1.3-2.9,3.5S528.7,17.8,530.4,17.8z"/>
								<path d="M537.5,14.3c0-3.4,1.9-5.8,4.9-5.8c1.4,0,2.6,0.7,3.2,1.4V4.1h2.6v15.6h-2.6v-1.1c-0.7,0.9-1.7,1.4-3.2,1.4
									C539.5,20,537.5,17.6,537.5,14.3z M542.9,10.8c-1.7,0-2.8,1.3-2.8,3.5c0,2.2,1.1,3.5,2.8,3.5c1.7,0,2.8-1.4,2.8-3.5
									C545.7,12.2,544.6,10.8,542.9,10.8z"/>
								<path d="M561.2,17.3c-0.5,0.8-2,2.8-5.2,2.8c-3.2,0-5.5-2.3-5.5-5.8c0-3.4,2.3-5.6,5.4-5.6c3.5,0,5.2,2.4,5.2,5.8
									c0,0.2,0,0.5,0,0.7h-8c0.2,1.5,1.1,2.8,3,2.8c2,0,2.9-1.3,3.2-1.9L561.2,17.3z M553.2,13h5.3c-0.1-1.4-1.1-2.4-2.6-2.4
									C554.3,10.6,553.3,11.7,553.2,13z"/>
								<path d="M575.6,11.9c-0.8-0.7-1.8-1.2-3.1-1.2c-1,0-1.8,0.4-1.8,1.1c0,0.8,0.8,0.9,2.3,1.3l1.3,0.3c1.7,0.4,3.2,1,3.2,3
									c0,2.5-2.3,3.7-4.8,3.7c-2.6,0-4.4-1.3-5.1-2.2l1.8-1.6c0.6,0.8,1.7,1.6,3.4,1.6c1.3,0,2.1-0.5,2.1-1.2
									c0-0.8-0.6-0.9-1.7-1.1l-1.6-0.3c-1.9-0.4-3.4-1.2-3.4-3.2c0-2.4,2.3-3.4,4.4-3.4c2.2,0,3.9,0.9,4.6,1.7L575.6,11.9z"/>
								<path d="M582.4,6.8h-2.6V4.1h2.6V6.8z M582.4,19.7h-2.6V8.8h2.6V19.7z"/>
								<path d="M594.1,8.8v2l-5.8,6.6h5.8v2.3h-9.3v-2l5.9-6.6H585V8.8H594.1z"/>
								<path d="M606.3,17.3c-0.5,0.8-2,2.8-5.2,2.8c-3.2,0-5.5-2.3-5.5-5.8c0-3.4,2.3-5.6,5.4-5.6c3.5,0,5.2,2.4,5.2,5.8
									c0,0.2,0,0.5,0,0.7h-8c0.2,1.5,1.1,2.8,3,2.8c2,0,2.9-1.3,3.2-1.9L606.3,17.3z M598.4,13h5.3c-0.1-1.4-1.1-2.4-2.6-2.4
									C599.4,10.6,598.4,11.7,598.4,13z"/>
								<path d="M611.5,16.7v3h-3v-3H611.5z"/>
							</g>
						</g>
					</g>
				</g>
			</g>
		</g>
	</g>
	<g>
		<g id="Footnote_x2C__source_00000159455337720894443050000002962354102198461115_">
			<g>
				<g>
					<path d="M7.4,473.1L6,469.3c-0.3-0.8-0.9-2.8-1-3.4h0c0,0.3,0.1,2.4,0.1,3.3v3.8H4v-8.2h1.4l1.5,4.2c0.3,0.9,0.8,2.3,0.9,2.6h0
						c0.1-0.3,0.5-1.6,0.8-2.4l1.5-4.4h1.5v8.2h-1v-3.8c0-0.9,0.1-2.9,0.1-3.4h0c-0.2,0.7-0.7,2.5-1,3.2l-1.4,4.1H7.4z"/>
					<path d="M17.2,469.2c-0.3-0.7-0.7-1.2-1.5-1.2c-1,0-1.7,0.8-1.7,2.2c0,1.3,0.7,2.1,1.7,2.1c0.8,0,1.2-0.4,1.5-1l0.8,0.4
						c-0.3,0.7-1.1,1.5-2.3,1.5c-1.6,0-2.7-1.1-2.7-3s1.1-3,2.7-3c1.2,0,2,0.6,2.3,1.5L17.2,469.2z"/>
					<path d="M26.2,473.1h-1.3l-2.9-4.1l-1.5,1.5v2.7h-1.1v-8.2h1.1v4.2l4.1-4.2H26l-3.2,3.3L26.2,473.1z"/>
					<path d="M28,466.2h-1v-1.3h1V466.2z M28,473.1h-1v-5.7h1V473.1z"/>
					<path d="M34.5,473.1h-1v-3.1c0-1.4-0.4-1.9-1.3-1.9c-1,0-1.5,0.8-1.5,1.7v3.3h-1v-5.7h1v0.9c0.2-0.5,0.8-1,1.8-1
						c1.4,0,1.9,0.9,1.9,2.3V473.1z"/>
					<path d="M39.6,468.7c-0.3-0.4-0.8-0.7-1.6-0.7c-0.6,0-1.1,0.3-1.1,0.8c0,0.5,0.4,0.7,1.2,0.8l0.7,0.2c0.9,0.2,1.7,0.5,1.7,1.5
						c0,1.2-1.1,1.8-2.3,1.8c-1.3,0-2.1-0.6-2.5-1.2l0.7-0.6c0.3,0.5,0.9,0.9,1.8,0.9c0.8,0,1.3-0.3,1.3-0.9c0-0.5-0.4-0.6-1.1-0.8
						l-0.8-0.2c-1-0.2-1.7-0.6-1.7-1.6c0-1.1,1.1-1.7,2.1-1.7s1.8,0.4,2.2,0.9L39.6,468.7z"/>
					<path d="M42.4,470.4c0,1.3,0.7,2,1.8,2s1.6-0.7,1.8-1.1l0.7,0.5c-0.3,0.6-1.2,1.5-2.6,1.5c-1.6,0-2.8-1.1-2.8-3
						c0-1.8,1.1-3,2.7-3c1.7,0,2.6,1.2,2.6,3v0.2H42.4z M45.6,469.6c0-0.9-0.5-1.6-1.5-1.6c-1,0-1.6,0.7-1.7,1.6H45.6z"/>
					<path d="M52.4,467.3l-2.3,6.7c-0.4,1-0.7,1.4-1.6,1.4c-0.4,0-0.6,0-0.8-0.1v-0.9c0.2,0,0.4,0.1,0.6,0.1c0.4,0,0.6-0.2,0.9-0.8
						l0.2-0.6l-2-5.8h1.1l1,3l0.5,1.6h0c0.1-0.4,0.3-0.9,0.5-1.6l1-3H52.4z"/>
					<path d="M60.8,472c-0.6,0.8-1.4,1.2-2.4,1.2c-1.3,0-2.5-0.8-2.5-2.3c0-1.3,0.9-2,1.9-2.5c-0.2-0.3-0.9-1-0.9-1.9
						c0-0.9,0.7-1.7,2-1.7c1.3,0,1.9,0.8,1.9,1.7c0,0.9-0.5,1.6-1.6,2.2l1.5,1.8c0.2-0.4,0.3-0.9,0.4-1.5l0.9,0.3
						c-0.1,0.8-0.3,1.5-0.6,2.1l1.6,1.9h-1.3L60.8,472z M58.4,469.1c-0.8,0.4-1.5,0.9-1.5,1.8c0,0.9,0.8,1.4,1.6,1.4
						c0.7,0,1.4-0.3,1.8-0.9L58.4,469.1z M59.8,466.5c0-0.6-0.4-0.9-0.9-0.9c-0.6,0-0.9,0.3-0.9,0.9c0,0.7,0.7,1.3,0.8,1.5
						C59.4,467.6,59.8,467.1,59.8,466.5z"/>
					<path d="M72.2,467.3c-0.4-0.9-1.1-1.6-2.2-1.6c-1.6,0-2.6,1.4-2.6,3.3c0,1.9,0.9,3.3,2.6,3.3c1.2,0,1.9-0.7,2.2-1.7l1,0.3
						c-0.4,1.1-1.3,2.3-3.2,2.3c-2.4,0-3.7-1.7-3.7-4.2c0-2.5,1.4-4.2,3.7-4.2c1.8,0,2.8,1,3.2,2.1L72.2,467.3z"/>
					<path d="M76.7,467.2c1.7,0,2.7,1.2,2.7,3c0,1.8-1,3-2.7,3c-1.7,0-2.7-1.2-2.7-3C74,468.4,75,467.2,76.7,467.2z M76.7,472.4
						c1,0,1.7-0.8,1.7-2.2c0-1.4-0.7-2.2-1.7-2.2c-1,0-1.7,0.8-1.7,2.2C75,471.6,75.7,472.4,76.7,472.4z"/>
					<path d="M84.3,473.1V470c0-1.2-0.2-1.9-1.1-1.9c-0.9,0-1.4,0.7-1.4,1.9v3.2h-1v-5.7h1v0.9c0.3-0.6,0.9-1,1.7-1
						c0.8,0,1.4,0.4,1.6,1.1c0.3-0.6,0.9-1.1,1.9-1.1c1.3,0,1.8,0.8,1.8,2.1v3.7h-1V470c0-1.2-0.2-1.9-1.1-1.9
						c-0.9,0-1.4,0.7-1.4,1.9v3.2H84.3z"/>
					<path d="M91.5,472.2v3.1h-1v-8h1v0.8c0.3-0.5,0.9-1,1.8-1c1.5,0,2.5,1.2,2.5,3c0,1.8-1,3-2.5,3
						C92.4,473.2,91.8,472.8,91.5,472.2z M93.1,472.4c1,0,1.6-0.8,1.6-2.2c0-1.4-0.6-2.2-1.6-2.2c-1,0-1.6,0.8-1.6,2.2
						C91.4,471.6,92.1,472.4,93.1,472.4z"/>
					<path d="M96.9,469.2c0-1.2,0.9-1.9,2.3-1.9c1.2,0,2.2,0.3,2.2,1.7c0,0.3,0,0.6,0,1v1.9c0,0.5,0.1,0.6,0.4,0.6
						c0.1,0,0.2,0,0.2,0v0.7c-0.1,0-0.3,0.1-0.6,0.1c-0.5,0-0.9-0.2-0.9-0.8c-0.2,0.3-0.8,0.8-1.9,0.8c-1.1,0-2-0.6-2-1.7
						c0-1.2,1-1.5,2.3-1.8l0.7-0.1c0.5-0.1,0.8-0.2,0.8-0.6c0-0.6-0.3-1-1.3-1c-1,0-1.4,0.5-1.4,1.2L96.9,469.2z M100.1,472
						c0.2-0.2,0.4-0.5,0.4-1.1v-0.8c0,0-0.1,0.1-0.5,0.2l-1.1,0.2c-0.8,0.2-1.2,0.4-1.2,1c0,0.7,0.5,1,1.2,1
						C99.4,472.5,99.8,472.3,100.1,472z"/>
					<path d="M107.8,473.1h-1v-3.1c0-1.4-0.4-1.9-1.3-1.9c-1,0-1.5,0.8-1.5,1.7v3.3h-1v-5.7h1v0.9c0.2-0.5,0.8-1,1.8-1
						c1.4,0,1.9,0.9,1.9,2.3V473.1z"/>
					<path d="M113.9,467.3l-2.3,6.7c-0.4,1-0.7,1.4-1.6,1.4c-0.4,0-0.6,0-0.8-0.1v-0.9c0.2,0,0.4,0.1,0.6,0.1c0.4,0,0.6-0.2,0.9-0.8
						l0.2-0.6l-2-5.8h1.1l1,3l0.5,1.6h0c0.1-0.4,0.3-0.9,0.5-1.6l1-3H113.9z"/>
				</g>
			</g>
		</g>
	</g>
	<g>
		<g>
			<path d="M268.8,118.5c-0.5-1.2-1.4-2.2-3-2.2c-2.1,0-3.3,1.8-3.3,4.4s1.3,4.4,3.3,4.4c1.7,0,2.6-1,3-2.2l0.8,0.5
				c-0.5,1.2-1.6,2.6-3.8,2.6c-2.8,0-4.3-2.1-4.3-5.3s1.6-5.3,4.3-5.3c2.1,0,3.3,1.3,3.8,2.5L268.8,118.5z"/>
			<path d="M276.8,125.9H276v-3.8c0-1.1-0.1-1.8-0.5-2.2c-0.3-0.3-0.7-0.5-1.3-0.5c-0.6,0-1.1,0.2-1.5,0.6c-0.4,0.4-0.6,1.1-0.6,1.7
				v4.2h-0.9v-10.2h0.9v4.2c0.3-0.7,1-1.3,2.3-1.3c0.7,0,1.3,0.2,1.8,0.7c0.5,0.5,0.6,1,0.6,2.6V125.9z"/>
			<path d="M280,117.2h-0.9v-1.5h0.9V117.2z M280,125.9h-0.9v-7.1h0.9V125.9z"/>
			<path d="M287.9,125.9H287v-3.8c0-1.1-0.1-1.8-0.5-2.2c-0.3-0.3-0.7-0.5-1.3-0.5c-0.7,0-1.2,0.2-1.5,0.6c-0.4,0.4-0.6,1.1-0.6,1.7
				v4.2h-0.9v-7.1h0.9v1.2h0c0.3-0.7,1.1-1.3,2.3-1.3c0.7,0,1.4,0.2,1.8,0.7c0.4,0.5,0.6,1,0.6,2.6V125.9z"/>
			<path d="M295.2,120.9v3.6c0,0.7,0.2,0.9,0.6,0.9c0.2,0,0.3,0,0.4-0.1v0.6c-0.1,0-0.4,0.1-0.7,0.1c-0.7,0-1.1-0.2-1.2-1.2h0
				c-0.3,0.6-1.1,1.2-2.4,1.2c-1.4,0-2.4-0.7-2.4-2c0-1.4,1.3-1.9,3-2.2l0.8-0.1c0.8-0.2,1-0.3,1-0.8v-0.1c0-0.9-0.5-1.5-1.8-1.5
				c-1.3,0-1.8,0.7-1.8,1.7l-0.9-0.1c0-1.4,1.1-2.3,2.8-2.3C294,118.6,295.2,119.1,295.2,120.9z M294.3,123.4V122
				c-0.1,0.1-0.3,0.2-0.6,0.2l-1.7,0.4c-1,0.2-1.5,0.5-1.5,1.4c0,0.9,0.7,1.4,1.6,1.4C293.3,125.4,294.3,124.6,294.3,123.4z"/>
		</g>
	</g>
	<g>
		<g>
			<path d="M477,115.7h7.5v0.8h-3.3v9.4h-0.9v-9.4H477V115.7z"/>
			<path d="M489.7,120.9v3.6c0,0.7,0.2,0.9,0.6,0.9c0.2,0,0.3,0,0.4-0.1v0.6c-0.1,0-0.4,0.1-0.7,0.1c-0.7,0-1.1-0.2-1.2-1.2h0
				c-0.3,0.6-1.1,1.2-2.4,1.2c-1.4,0-2.4-0.7-2.4-2c0-1.4,1.3-1.9,3-2.2l0.8-0.1c0.8-0.2,1-0.3,1-0.8v-0.1c0-0.9-0.5-1.5-1.8-1.5
				c-1.3,0-1.8,0.7-1.8,1.7l-0.9-0.1c0-1.4,1.1-2.3,2.8-2.3C488.5,118.6,489.7,119.1,489.7,120.9z M488.8,123.4V122
				c-0.1,0.1-0.3,0.2-0.6,0.2l-1.7,0.4c-1,0.2-1.5,0.5-1.5,1.4c0,0.9,0.7,1.4,1.6,1.4C487.8,125.4,488.8,124.6,488.8,123.4z"/>
			<path d="M492.8,117.2H492v-1.5h0.9V117.2z M492.8,125.9H492v-7.1h0.9V125.9z"/>
			<path d="M500.9,123c0.2,0.6,0.4,1.3,0.5,1.6h0c0.1-0.3,0.3-0.9,0.5-1.6l1.2-4.2h0.9l-2.1,7.1h-0.8l-1.4-4.7
				c-0.2-0.6-0.3-1.1-0.4-1.3h0c0,0.2-0.2,0.7-0.4,1.3l-1.4,4.7h-0.8l-2.2-7.1h0.9l1.3,4.2c0.2,0.6,0.4,1.3,0.5,1.6h0
				c0.1-0.3,0.3-1,0.4-1.6l1.3-4.2h0.8L500.9,123z"/>
			<path d="M510.3,120.9v3.6c0,0.7,0.2,0.9,0.6,0.9c0.2,0,0.3,0,0.4-0.1v0.6c-0.1,0-0.4,0.1-0.7,0.1c-0.7,0-1.1-0.2-1.2-1.2h0
				c-0.3,0.6-1.1,1.2-2.4,1.2c-1.4,0-2.4-0.7-2.4-2c0-1.4,1.3-1.9,3-2.2l0.8-0.1c0.8-0.2,1-0.3,1-0.8v-0.1c0-0.9-0.5-1.5-1.8-1.5
				c-1.3,0-1.8,0.7-1.8,1.7l-0.9-0.1c0-1.4,1.1-2.3,2.8-2.3C509.2,118.6,510.3,119.1,510.3,120.9z M509.5,123.4V122
				c-0.1,0.1-0.3,0.2-0.6,0.2l-1.7,0.4c-1,0.2-1.5,0.5-1.5,1.4c0,0.9,0.7,1.4,1.6,1.4C508.5,125.4,509.5,124.6,509.5,123.4z"/>
			<path d="M518.2,125.9h-0.9v-3.8c0-1.1-0.1-1.8-0.5-2.2c-0.3-0.3-0.7-0.5-1.3-0.5c-0.7,0-1.2,0.2-1.5,0.6
				c-0.4,0.4-0.6,1.1-0.6,1.7v4.2h-0.9v-7.1h0.9v1.2h0c0.3-0.7,1.1-1.3,2.3-1.3c0.7,0,1.4,0.2,1.8,0.7c0.4,0.5,0.6,1,0.6,2.6V125.9z
				"/>
		</g>
	</g>
	<g>
		<g>
			<path d="M597.6,123.2c0,1.3,0.6,2.1,2,2.1c0.8,0,1.2-0.3,1.5-0.7c0.3-0.4,0.3-1,0.3-1.7v-7.2h0.9v7c0,1-0.1,1.8-0.4,2.3
				c-0.4,0.7-1.1,1.1-2.4,1.1c-1.6,0-2.8-0.7-2.8-2.6L597.6,123.2z"/>
			<path d="M609.7,120.9v3.6c0,0.7,0.2,0.9,0.6,0.9c0.2,0,0.3,0,0.4-0.1v0.6c-0.1,0-0.4,0.1-0.7,0.1c-0.7,0-1.1-0.2-1.2-1.2h0
				c-0.3,0.6-1.1,1.2-2.4,1.2c-1.4,0-2.4-0.7-2.4-2c0-1.4,1.3-1.9,3-2.2l0.8-0.1c0.8-0.2,1-0.3,1-0.8v-0.1c0-0.9-0.5-1.5-1.8-1.5
				c-1.3,0-1.8,0.7-1.8,1.7l-0.9-0.1c0-1.4,1.1-2.3,2.8-2.3C608.6,118.6,609.7,119.1,609.7,120.9z M608.9,123.4V122
				c-0.1,0.1-0.3,0.2-0.6,0.2l-1.7,0.4c-1,0.2-1.5,0.5-1.5,1.4c0,0.9,0.7,1.4,1.6,1.4C607.9,125.4,608.9,124.6,608.9,123.4z"/>
			<path d="M612.9,124.6v4.1H612v-10h0.9v1.3c0.3-0.8,1.2-1.4,2.3-1.4c1.8,0,3,1.4,3,3.8c0,2.4-1.2,3.7-3,3.7
				C614.1,126.1,613.3,125.4,612.9,124.6z M615.1,125.3c1.4,0,2.2-1.1,2.2-3c0-1.9-0.9-3-2.2-3c-1.3,0-2.2,1-2.2,3
				C612.9,124.3,613.7,125.3,615.1,125.3z"/>
			<path d="M625.1,120.9v3.6c0,0.7,0.2,0.9,0.6,0.9c0.2,0,0.3,0,0.4-0.1v0.6c-0.1,0-0.4,0.1-0.7,0.1c-0.7,0-1.1-0.2-1.2-1.2h0
				c-0.3,0.6-1.1,1.2-2.4,1.2c-1.4,0-2.4-0.7-2.4-2c0-1.4,1.3-1.9,3-2.2l0.8-0.1c0.8-0.2,1-0.3,1-0.8v-0.1c0-0.9-0.5-1.5-1.8-1.5
				c-1.3,0-1.8,0.7-1.8,1.7l-0.9-0.1c0-1.4,1.1-2.3,2.8-2.3C624,118.6,625.1,119.1,625.1,120.9z M624.3,123.4V122
				c-0.1,0.1-0.3,0.2-0.6,0.2l-1.7,0.4c-1,0.2-1.5,0.5-1.5,1.4c0,0.9,0.7,1.4,1.6,1.4C623.3,125.4,624.3,124.6,624.3,123.4z"/>
			<path d="M633,125.9h-0.9v-3.8c0-1.1-0.1-1.8-0.5-2.2c-0.3-0.3-0.7-0.5-1.3-0.5c-0.7,0-1.2,0.2-1.5,0.6c-0.4,0.4-0.6,1.1-0.6,1.7
				v4.2h-0.9v-7.1h0.9v1.2h0c0.3-0.7,1.1-1.3,2.3-1.3c0.7,0,1.4,0.2,1.8,0.7c0.4,0.5,0.6,1,0.6,2.6V125.9z"/>
		</g>
	</g>
	<g>
		<g>
			<path d="M684.1,100.7c-0.6-0.8-1.5-1.3-2.7-1.3c-1.4,0-2.4,0.7-2.4,1.8c0,1.1,0.7,1.5,2.1,1.8l1.4,0.3c1.8,0.4,2.8,1,2.8,2.7
				c0,1.7-1.4,3-3.8,3c-2.3,0-3.5-1.2-4-2.3l0.8-0.6c0.4,1,1.5,2,3.2,2c1.8,0,2.7-0.9,2.7-2.1c0-1.1-0.7-1.6-2.2-1.9l-1.3-0.3
				c-1.5-0.3-2.8-0.9-2.8-2.7c0-1.6,1.4-2.7,3.4-2.7c1.8,0,2.8,0.7,3.4,1.5L684.1,100.7z"/>
			<path d="M689.7,101.6c2,0,3.2,1.5,3.2,3.8c0,2.2-1.2,3.7-3.2,3.7c-2,0-3.2-1.5-3.2-3.7C686.4,103.1,687.7,101.6,689.7,101.6z
				 M689.7,108.3c1.4,0,2.3-1.1,2.3-3c0-1.9-0.9-3-2.3-3s-2.3,1.1-2.3,3C687.4,107.2,688.3,108.3,689.7,108.3z"/>
			<path d="M694.7,101.8h0.9v4.1c0,0.9,0.1,1.5,0.5,1.9c0.3,0.3,0.7,0.5,1.3,0.5c1.5,0,2-1.2,2-2.2v-4.2h0.9v7.1h-0.9v-1.2h0
				c-0.3,0.7-1,1.3-2.2,1.3c-0.7,0-1.3-0.2-1.8-0.7c-0.4-0.5-0.6-1.1-0.6-2.2V101.8z"/>
			<path d="M701.6,101.8h1.4v-2.7l0.9-0.2v2.9h1.7v0.7H704v4.8c0,0.8,0.2,1,0.8,1c0.4,0,0.7-0.1,0.9-0.2v0.8
				c-0.2,0.1-0.7,0.2-1.1,0.2c-0.9,0-1.5-0.3-1.5-1.6v-5h-1.4V101.8z"/>
			<path d="M712.9,108.9H712v-3.8c0-1.1-0.1-1.8-0.5-2.2c-0.3-0.3-0.7-0.5-1.3-0.5c-0.6,0-1.1,0.2-1.5,0.6c-0.4,0.4-0.6,1.1-0.6,1.7
				v4.2h-0.9V98.7h0.9v4.2c0.3-0.7,1-1.3,2.3-1.3c0.7,0,1.4,0.2,1.8,0.7c0.5,0.5,0.6,1,0.6,2.6V108.9z"/>
			<path d="M686.6,125.9h-1.2l-3.8-5.5l-2.2,2.2v3.3h-0.9v-10.2h0.9v5.7l5.6-5.7h1.3l-4,4L686.6,125.9z"/>
			<path d="M690.2,118.6c2,0,3.2,1.5,3.2,3.8c0,2.2-1.2,3.7-3.2,3.7c-2,0-3.2-1.5-3.2-3.7C686.9,120.1,688.2,118.6,690.2,118.6z
				 M690.2,125.3c1.4,0,2.3-1.1,2.3-3c0-1.9-0.9-3-2.3-3s-2.3,1.1-2.3,3C687.9,124.2,688.8,125.3,690.2,125.3z"/>
			<path d="M698.8,119.5c-0.2,0-0.3,0-0.5,0c-1.2,0-2.1,1-2.1,2.4v4h-0.9v-7.1h0.9v1.4h0c0.3-0.8,1.1-1.6,2.2-1.6c0.2,0,0.3,0,0.5,0
				V119.5z"/>
			<path d="M705.9,124.2c-0.4,0.8-1.3,1.9-3.1,1.9c-2,0-3.3-1.4-3.3-3.8c0-2.2,1.3-3.7,3.2-3.7c2.1,0,3.1,1.6,3.1,3.7v0.1h-5.4v0.1
				c0,1.9,1.1,2.8,2.4,2.8c1.4,0,2.1-0.9,2.4-1.6L705.9,124.2z M700.4,121.7h4.4c0-1.1-0.8-2.3-2.2-2.3
				C701.4,119.4,700.6,120.3,700.4,121.7z"/>
			<path d="M712.7,120.9v3.6c0,0.7,0.2,0.9,0.6,0.9c0.2,0,0.3,0,0.4-0.1v0.6c-0.1,0-0.4,0.1-0.7,0.1c-0.7,0-1.1-0.2-1.2-1.2h0
				c-0.3,0.6-1.1,1.2-2.4,1.2c-1.4,0-2.4-0.7-2.4-2c0-1.4,1.3-1.9,3-2.2l0.8-0.1c0.8-0.2,1-0.3,1-0.8v-0.1c0-0.9-0.5-1.5-1.8-1.5
				c-1.3,0-1.8,0.7-1.8,1.7l-0.9-0.1c0-1.4,1.1-2.3,2.8-2.3C711.5,118.6,712.7,119.1,712.7,120.9z M711.9,123.4V122
				c-0.1,0.1-0.3,0.2-0.6,0.2l-1.7,0.4c-1,0.2-1.5,0.5-1.5,1.4c0,0.9,0.7,1.4,1.6,1.4C710.9,125.4,711.9,124.6,711.9,123.4z"/>
		</g>
	</g>
	<g>
		<g>
			<path d="M295,382.2h7.5v0.8h-3.3v9.4h-0.9V383H295V382.2z"/>
			<path d="M307.7,387.3v3.6c0,0.7,0.2,0.9,0.6,0.9c0.2,0,0.3,0,0.4-0.1v0.6c-0.1,0-0.4,0.1-0.7,0.1c-0.7,0-1.1-0.2-1.2-1.2h0
				c-0.3,0.6-1.1,1.2-2.4,1.2c-1.4,0-2.4-0.7-2.4-2c0-1.4,1.3-1.9,3-2.2l0.8-0.1c0.8-0.2,1-0.3,1-0.8v-0.1c0-0.9-0.5-1.5-1.8-1.5
				c-1.3,0-1.8,0.7-1.8,1.7l-0.9-0.1c0-1.4,1.1-2.3,2.8-2.3C306.5,385.1,307.7,385.5,307.7,387.3z M306.8,389.9v-1.4
				c-0.1,0.1-0.3,0.2-0.6,0.2l-1.7,0.4c-1,0.2-1.5,0.5-1.5,1.4c0,0.9,0.7,1.4,1.6,1.4C305.8,391.9,306.8,391.1,306.8,389.9z"/>
			<path d="M310.8,383.6h-0.9v-1.5h0.9V383.6z M310.8,392.4h-0.9v-7.1h0.9V392.4z"/>
			<path d="M318.9,389.5c0.2,0.6,0.4,1.3,0.5,1.6h0c0.1-0.3,0.3-0.9,0.5-1.6l1.2-4.2h0.9l-2.1,7.1h-0.8l-1.4-4.7
				c-0.2-0.6-0.3-1.1-0.4-1.3h0c0,0.2-0.2,0.7-0.4,1.3l-1.4,4.7h-0.8l-2.2-7.1h0.9l1.3,4.2c0.2,0.6,0.4,1.3,0.5,1.6h0
				c0.1-0.3,0.3-1,0.4-1.6l1.3-4.2h0.8L318.9,389.5z"/>
			<path d="M328.3,387.3v3.6c0,0.7,0.2,0.9,0.6,0.9c0.2,0,0.3,0,0.4-0.1v0.6c-0.1,0-0.4,0.1-0.7,0.1c-0.7,0-1.1-0.2-1.2-1.2h0
				c-0.3,0.6-1.1,1.2-2.4,1.2c-1.4,0-2.4-0.7-2.4-2c0-1.4,1.3-1.9,3-2.2l0.8-0.1c0.8-0.2,1-0.3,1-0.8v-0.1c0-0.9-0.5-1.5-1.8-1.5
				c-1.3,0-1.8,0.7-1.8,1.7l-0.9-0.1c0-1.4,1.1-2.3,2.8-2.3C327.2,385.1,328.3,385.5,328.3,387.3z M327.5,389.9v-1.4
				c-0.1,0.1-0.3,0.2-0.6,0.2l-1.7,0.4c-1,0.2-1.5,0.5-1.5,1.4c0,0.9,0.7,1.4,1.6,1.4C326.5,391.9,327.5,391.1,327.5,389.9z"/>
			<path d="M336.2,392.4h-0.9v-3.8c0-1.1-0.1-1.8-0.5-2.2c-0.3-0.3-0.7-0.5-1.3-0.5c-0.7,0-1.2,0.2-1.5,0.6
				c-0.4,0.4-0.6,1.1-0.6,1.7v4.2h-0.9v-7.1h0.9v1.2h0c0.3-0.7,1.1-1.3,2.3-1.3c0.7,0,1.4,0.2,1.8,0.7c0.4,0.5,0.6,1,0.6,2.6V392.4z
				"/>
		</g>
	</g>
	<g>
		<g>
			<path d="M648.7,384.2c-0.6-0.8-1.5-1.3-2.7-1.3c-1.4,0-2.4,0.7-2.4,1.8c0,1.1,0.7,1.5,2.1,1.8l1.4,0.3c1.8,0.4,2.8,1,2.8,2.7
				c0,1.7-1.4,3-3.8,3c-2.3,0-3.5-1.2-4-2.3l0.8-0.6c0.4,1,1.5,2,3.2,2c1.8,0,2.7-0.9,2.7-2.1c0-1.1-0.8-1.6-2.2-1.9l-1.3-0.3
				c-1.5-0.3-2.8-0.9-2.8-2.7c0-1.6,1.4-2.7,3.4-2.7c1.8,0,2.8,0.7,3.4,1.5L648.7,384.2z"/>
			<path d="M654.4,385.1c2,0,3.2,1.5,3.2,3.8c0,2.2-1.2,3.7-3.2,3.7c-2,0-3.2-1.5-3.2-3.7C651.1,386.6,652.3,385.1,654.4,385.1z
				 M654.4,391.8c1.4,0,2.3-1.1,2.3-3c0-1.9-0.9-3-2.3-3s-2.3,1.1-2.3,3C652,390.7,653,391.8,654.4,391.8z"/>
			<path d="M659.4,385.2h0.9v4.1c0,0.9,0.1,1.5,0.5,1.9c0.3,0.3,0.7,0.5,1.3,0.5c1.5,0,2-1.2,2-2.2v-4.2h0.9v7.1H664v-1.2h0
				c-0.3,0.7-1,1.3-2.2,1.3c-0.7,0-1.3-0.2-1.8-0.7c-0.4-0.5-0.6-1.1-0.6-2.2V385.2z"/>
			<path d="M666.3,385.2h1.4v-2.7l0.9-0.2v2.9h1.7v0.7h-1.7v4.8c0,0.8,0.2,1,0.8,1c0.4,0,0.7-0.1,0.9-0.2v0.8
				c-0.2,0.1-0.7,0.2-1.1,0.2c-0.9,0-1.5-0.3-1.5-1.6v-5h-1.4V385.2z"/>
			<path d="M677.5,392.4h-0.9v-3.8c0-1.1-0.1-1.8-0.5-2.2c-0.3-0.3-0.7-0.5-1.3-0.5c-0.6,0-1.1,0.2-1.5,0.6
				c-0.4,0.4-0.6,1.1-0.6,1.7v4.2H672v-10.2h0.9v4.2c0.3-0.7,1-1.3,2.3-1.3c0.7,0,1.3,0.2,1.8,0.7c0.5,0.5,0.6,1,0.6,2.6V392.4z"/>
			<path d="M691.6,392.4h-1.2l-3.8-5.5l-2.2,2.2v3.3h-0.9v-10.2h0.9v5.7l5.6-5.7h1.3l-4,4L691.6,392.4z"/>
			<path d="M695.2,385.1c2,0,3.2,1.5,3.2,3.8c0,2.2-1.2,3.7-3.2,3.7c-2,0-3.2-1.5-3.2-3.7C692,386.6,693.2,385.1,695.2,385.1z
				 M695.2,391.8c1.4,0,2.3-1.1,2.3-3c0-1.9-0.9-3-2.3-3s-2.3,1.1-2.3,3C692.9,390.7,693.8,391.8,695.2,391.8z"/>
			<path d="M703.8,386c-0.2,0-0.3,0-0.5,0c-1.2,0-2.1,1-2.1,2.4v4h-0.9v-7.1h0.9v1.4h0c0.3-0.8,1.1-1.6,2.2-1.6c0.2,0,0.3,0,0.5,0
				V386z"/>
			<path d="M710.9,390.6c-0.4,0.8-1.3,1.9-3.1,1.9c-2,0-3.3-1.4-3.3-3.8c0-2.2,1.3-3.7,3.2-3.7c2.1,0,3.1,1.6,3.1,3.7v0.1h-5.4v0.1
				c0,1.9,1.1,2.8,2.4,2.8c1.4,0,2.1-0.9,2.4-1.6L710.9,390.6z M705.5,388.2h4.4c0-1.1-0.8-2.3-2.2-2.3
				C706.5,385.8,705.6,386.7,705.5,388.2z"/>
			<path d="M717.8,387.3v3.6c0,0.7,0.2,0.9,0.6,0.9c0.2,0,0.3,0,0.4-0.1v0.6c-0.1,0-0.4,0.1-0.7,0.1c-0.7,0-1.1-0.2-1.2-1.2h0
				c-0.3,0.6-1.1,1.2-2.4,1.2c-1.4,0-2.4-0.7-2.4-2c0-1.4,1.3-1.9,3-2.2l0.8-0.1c0.8-0.2,1-0.3,1-0.8v-0.1c0-0.9-0.5-1.5-1.8-1.5
				c-1.3,0-1.8,0.7-1.8,1.7l-0.9-0.1c0-1.4,1.1-2.3,2.8-2.3C716.6,385.1,717.8,385.5,717.8,387.3z M716.9,389.9v-1.4
				c-0.1,0.1-0.3,0.2-0.6,0.2l-1.7,0.4c-1,0.2-1.5,0.5-1.5,1.4c0,0.9,0.7,1.4,1.6,1.4C715.9,391.9,716.9,391.1,716.9,389.9z"/>
		</g>
	</g>
	<g>
		<g>
			<path d="M747.6,104.4h-2.7v4.5H744V98.7h4c0.9,0,1.7,0.1,2.4,0.5c0.8,0.5,1.3,1.2,1.3,2.3s-0.5,1.8-1.3,2.3
				c-0.5,0.3-1.1,0.5-1.7,0.5l3.2,4.5h-1.2L747.6,104.4z M744.9,103.6h2.8c1,0,1.4-0.1,1.9-0.3c0.7-0.3,1.1-0.9,1.1-1.7
				c0-0.8-0.4-1.4-1.1-1.7c-0.4-0.2-0.9-0.3-1.9-0.3h-2.8V103.6z"/>
			<path d="M759.3,107.2c-0.4,0.8-1.3,1.9-3.1,1.9c-2,0-3.3-1.4-3.3-3.8c0-2.2,1.3-3.7,3.2-3.7c2.1,0,3.1,1.6,3.1,3.7v0.1h-5.4v0.1
				c0,1.9,1.1,2.8,2.4,2.8c1.4,0,2.1-0.9,2.4-1.6L759.3,107.2z M753.9,104.7h4.4c0-1.1-0.8-2.3-2.2-2.3
				C754.8,102.4,754,103.3,753.9,104.7z"/>
			<path d="M765.1,103.3c-0.4-0.5-1-0.9-1.9-0.9c-0.9,0-1.6,0.4-1.6,1.1c0,0.8,0.5,1,1.4,1.2l0.9,0.2c1.2,0.3,2.1,0.7,2.1,2
				c0,1.4-1.2,2.1-2.7,2.1c-1.5,0-2.5-0.7-3-1.5l0.7-0.5c0.5,0.7,1.2,1.2,2.3,1.2c1.2,0,1.8-0.6,1.8-1.3c0-0.8-0.6-1-1.5-1.2l-1-0.2
				c-1.3-0.3-2-0.8-2-2c0-1.3,1.2-2,2.5-2c1.2,0,2.1,0.5,2.6,1.1L765.1,103.3z"/>
			<path d="M766.8,101.8h1.4v-2.7l0.9-0.2v2.9h1.7v0.7h-1.7v4.8c0,0.8,0.2,1,0.8,1c0.4,0,0.7-0.1,0.9-0.2v0.8
				c-0.2,0.1-0.7,0.2-1.1,0.2c-0.9,0-1.5-0.3-1.5-1.6v-5h-1.4V101.8z"/>
			<path d="M778.8,101.6c2,0,3.2,1.5,3.2,3.8c0,2.2-1.2,3.7-3.2,3.7c-2,0-3.2-1.5-3.2-3.7C775.6,103.1,776.8,101.6,778.8,101.6z
				 M778.8,108.3c1.4,0,2.3-1.1,2.3-3c0-1.9-0.9-3-2.3-3s-2.3,1.1-2.3,3C776.5,107.2,777.4,108.3,778.8,108.3z"/>
			<path d="M786.9,102.5h-1.6v6.5h-0.9v-6.5h-1.6v-0.7h1.6v-1.6c0-0.6,0.1-0.9,0.3-1.2c0.3-0.3,0.7-0.5,1.3-0.5
				c0.4,0,0.7,0.1,0.9,0.1v0.8c-0.2-0.1-0.6-0.2-0.9-0.2c-0.3,0-0.4,0.1-0.5,0.2c-0.2,0.2-0.2,0.4-0.2,0.8v1.5h1.6V102.5z"/>
			<path d="M754.5,123c0.2,0.6,0.4,1.3,0.5,1.6h0c0.1-0.3,0.3-0.9,0.5-1.6l1.2-4.2h0.9l-2.1,7.1h-0.8l-1.4-4.7
				c-0.2-0.6-0.3-1.1-0.4-1.3h0c0,0.2-0.2,0.7-0.4,1.3l-1.4,4.7h-0.8l-2.2-7.1h0.9l1.3,4.2c0.2,0.6,0.4,1.3,0.5,1.6h0
				c0.1-0.3,0.3-1,0.4-1.6l1.3-4.2h0.8L754.5,123z"/>
			<path d="M761.7,118.6c2,0,3.2,1.5,3.2,3.8c0,2.2-1.2,3.7-3.2,3.7c-2,0-3.2-1.5-3.2-3.7C758.5,120.1,759.7,118.6,761.7,118.6z
				 M761.7,125.3c1.4,0,2.3-1.1,2.3-3c0-1.9-0.9-3-2.3-3s-2.3,1.1-2.3,3C759.4,124.2,760.3,125.3,761.7,125.3z"/>
			<path d="M770.3,119.5c-0.2,0-0.3,0-0.5,0c-1.2,0-2.1,1-2.1,2.4v4h-0.9v-7.1h0.9v1.4h0c0.3-0.8,1.1-1.6,2.2-1.6c0.2,0,0.3,0,0.5,0
				V119.5z"/>
			<path d="M772.7,125.9h-0.9v-10.2h0.9V125.9z"/>
			<path d="M774.5,122.4c0-2.4,1.2-3.8,3-3.8c1.1,0,2,0.6,2.3,1.4v-4.3h0.9v10.2h-0.9v-1.3c-0.4,0.8-1.2,1.5-2.4,1.5
				C775.7,126.1,774.5,124.8,774.5,122.4z M777.7,119.4c-1.4,0-2.2,1-2.2,3c0,1.9,0.8,3,2.2,3c1.4,0,2.2-1,2.2-3
				C779.9,120.4,779,119.4,777.7,119.4z"/>
		</g>
	</g>
	<g>
		<g>
			<path d="M340.9,108.9h-7V98.7h6.7v0.8h-5.7v3.7h5.2v0.9h-5.2v4h6V108.9z"/>
			<path d="M342.3,101.8h0.9v4.1c0,0.9,0.1,1.5,0.5,1.9c0.3,0.3,0.7,0.5,1.3,0.5c1.5,0,2-1.2,2-2.2v-4.2h0.9v7.1H347v-1.2h0
				c-0.3,0.7-1,1.3-2.2,1.3c-0.7,0-1.3-0.2-1.8-0.7c-0.4-0.5-0.6-1.1-0.6-2.2V101.8z"/>
			<path d="M353.7,102.5c-0.2,0-0.3,0-0.5,0c-1.2,0-2.1,1-2.1,2.4v4h-0.9v-7.1h0.9v1.4h0c0.3-0.8,1.1-1.6,2.2-1.6c0.2,0,0.3,0,0.5,0
				V102.5z"/>
			<path d="M357.7,101.6c2,0,3.2,1.5,3.2,3.8c0,2.2-1.2,3.7-3.2,3.7c-2,0-3.2-1.5-3.2-3.7C354.4,103.1,355.7,101.6,357.7,101.6z
				 M357.7,108.3c1.4,0,2.3-1.1,2.3-3c0-1.9-0.9-3-2.3-3s-2.3,1.1-2.3,3C355.4,107.2,356.3,108.3,357.7,108.3z"/>
			<path d="M363.6,107.6v4.1h-0.9v-10h0.9v1.3c0.3-0.8,1.2-1.4,2.3-1.4c1.8,0,3,1.4,3,3.8c0,2.4-1.2,3.7-3,3.7
				C364.8,109.1,364,108.4,363.6,107.6z M365.8,108.3c1.4,0,2.2-1.1,2.2-3c0-1.9-0.9-3-2.2-3c-1.3,0-2.2,1-2.2,3
				C363.6,107.3,364.5,108.3,365.8,108.3z"/>
			<path d="M376.7,107.2c-0.4,0.8-1.3,1.9-3.1,1.9c-2,0-3.3-1.4-3.3-3.8c0-2.2,1.3-3.7,3.2-3.7c2.1,0,3.1,1.6,3.1,3.7v0.1h-5.4v0.1
				c0,1.9,1.1,2.8,2.4,2.8c1.4,0,2.1-0.9,2.4-1.6L376.7,107.2z M371.3,104.7h4.4c0-1.1-0.8-2.3-2.2-2.3
				C372.3,102.4,371.4,103.3,371.3,104.7z"/>
			<path d="M379.6,107.2v1.6c0,0.6-0.1,1-0.2,1.3c-0.2,0.5-0.5,0.8-1.1,0.9v-0.6c0.5-0.2,0.6-0.8,0.6-1.3v-0.1h-0.6v-1.7H379.6z"/>
			<path d="M390.4,108.9h-0.6l-2.5-6c-0.4-1-0.9-2.5-1-3h0c0.1,0.5,0.1,2.6,0.1,3.4v5.5h-0.9V98.7h1.1l3,7.2
				c0.3,0.7,0.5,1.2,0.6,1.6h0c0.1-0.4,0.2-0.8,0.5-1.5l2.8-7.2h1.2v10.2h-0.9v-5.2c0-0.9,0.1-3.5,0.1-4h0c-0.1,0.4-0.6,2-1,3
				L390.4,108.9z"/>
			<path d="M398,100.2h-0.9v-1.5h0.9V100.2z M398,108.9h-0.9v-7.1h0.9V108.9z"/>
			<path d="M399.9,105.4c0-2.4,1.2-3.8,3-3.8c1.1,0,2,0.6,2.3,1.4v-4.3h0.9v10.2h-0.9v-1.3c-0.4,0.8-1.2,1.5-2.4,1.5
				C401.1,109.1,399.9,107.8,399.9,105.4z M403,102.4c-1.4,0-2.2,1-2.2,3c0,1.9,0.8,3,2.2,3c1.4,0,2.2-1,2.2-3
				C405.2,103.4,404.4,102.4,403,102.4z"/>
			<path d="M407.9,105.4c0-2.4,1.2-3.8,3-3.8c1.1,0,2,0.6,2.3,1.4v-4.3h0.9v10.2h-0.9v-1.3c-0.4,0.8-1.2,1.5-2.4,1.5
				C409.1,109.1,407.9,107.8,407.9,105.4z M411.1,102.4c-1.4,0-2.2,1-2.2,3c0,1.9,0.8,3,2.2,3c1.4,0,2.2-1,2.2-3
				C413.3,103.4,412.4,102.4,411.1,102.4z"/>
			<path d="M417.4,108.9h-0.9V98.7h0.9V108.9z"/>
			<path d="M425.6,107.2c-0.4,0.8-1.3,1.9-3.1,1.9c-2,0-3.3-1.4-3.3-3.8c0-2.2,1.3-3.7,3.2-3.7c2.1,0,3.1,1.6,3.1,3.7v0.1h-5.4v0.1
				c0,1.9,1.1,2.8,2.4,2.8c1.4,0,2.1-0.9,2.4-1.6L425.6,107.2z M420.2,104.7h4.4c0-1.1-0.8-2.3-2.2-2.3
				C421.1,102.4,420.3,103.3,420.2,104.7z"/>
			<path d="M438.1,108.9h-7V98.7h6.7v0.8h-5.7v3.7h5.2v0.9h-5.2v4h6V108.9z"/>
			<path d="M444.9,103.9v3.6c0,0.7,0.2,0.9,0.6,0.9c0.2,0,0.3,0,0.4-0.1v0.6c-0.1,0-0.4,0.1-0.7,0.1c-0.7,0-1.1-0.2-1.2-1.2h0
				c-0.3,0.6-1.1,1.2-2.4,1.2c-1.4,0-2.4-0.7-2.4-2c0-1.4,1.3-1.9,3-2.2l0.8-0.1c0.8-0.2,1-0.3,1-0.8v-0.1c0-0.9-0.5-1.5-1.8-1.5
				c-1.3,0-1.8,0.7-1.8,1.7l-0.9-0.1c0-1.4,1.1-2.3,2.8-2.3C443.7,101.6,444.9,102.1,444.9,103.9z M444,106.4V105
				c-0.1,0.1-0.3,0.2-0.6,0.2l-1.7,0.4c-1,0.2-1.5,0.5-1.5,1.4c0,0.9,0.7,1.4,1.6,1.4C443,108.4,444,107.6,444,106.4z"/>
			<path d="M451.2,103.3c-0.4-0.5-1-0.9-1.9-0.9c-0.9,0-1.6,0.4-1.6,1.1c0,0.8,0.5,1,1.4,1.2l0.9,0.2c1.2,0.3,2.1,0.7,2.1,2
				c0,1.4-1.2,2.1-2.7,2.1c-1.5,0-2.5-0.7-3-1.5l0.7-0.5c0.5,0.7,1.2,1.2,2.3,1.2c1.2,0,1.8-0.6,1.8-1.3c0-0.8-0.6-1-1.5-1.2l-1-0.2
				c-1.3-0.3-2-0.8-2-2c0-1.3,1.2-2,2.5-2c1.2,0,2.1,0.5,2.6,1.1L451.2,103.3z"/>
			<path d="M452.9,101.8h1.4v-2.7l0.9-0.2v2.9h1.7v0.7h-1.7v4.8c0,0.8,0.2,1,0.8,1c0.4,0,0.7-0.1,0.9-0.2v0.8
				c-0.2,0.1-0.7,0.2-1.1,0.2c-0.9,0-1.5-0.3-1.5-1.6v-5h-1.4V101.8z"/>
			<path d="M459.6,107.2v1.6c0,0.6-0.1,1-0.2,1.3c-0.2,0.5-0.5,0.8-1.1,0.9v-0.6c0.5-0.2,0.6-0.8,0.6-1.3v-0.1h-0.6v-1.7H459.6z"/>
			<path d="M371.5,120.9v3.6c0,0.7,0.2,0.9,0.6,0.9c0.2,0,0.3,0,0.4-0.1v0.6c-0.1,0-0.4,0.1-0.7,0.1c-0.7,0-1.1-0.2-1.2-1.2h0
				c-0.3,0.6-1.1,1.2-2.4,1.2c-1.4,0-2.4-0.7-2.4-2c0-1.4,1.3-1.9,3-2.2l0.8-0.1c0.8-0.2,1-0.3,1-0.8v-0.1c0-0.9-0.5-1.5-1.8-1.5
				c-1.3,0-1.8,0.7-1.8,1.7l-0.9-0.1c0-1.4,1.1-2.3,2.8-2.3C370.4,118.6,371.5,119.1,371.5,120.9z M370.7,123.4V122
				c-0.1,0.1-0.3,0.2-0.6,0.2l-1.7,0.4c-1,0.2-1.5,0.5-1.5,1.4c0,0.9,0.7,1.4,1.6,1.4C369.7,125.4,370.7,124.6,370.7,123.4z"/>
			<path d="M379.4,125.9h-0.9v-3.8c0-1.1-0.1-1.8-0.5-2.2c-0.3-0.3-0.7-0.5-1.3-0.5c-0.7,0-1.2,0.2-1.5,0.6
				c-0.4,0.4-0.6,1.1-0.6,1.7v4.2h-0.9v-7.1h0.9v1.2h0c0.3-0.7,1.1-1.3,2.3-1.3c0.7,0,1.4,0.2,1.8,0.7c0.4,0.5,0.6,1,0.6,2.6V125.9z
				"/>
			<path d="M381.2,122.4c0-2.4,1.2-3.8,3-3.8c1.1,0,2,0.6,2.3,1.4v-4.3h0.9v10.2h-0.9v-1.3c-0.4,0.8-1.2,1.5-2.4,1.5
				C382.4,126.1,381.2,124.8,381.2,122.4z M384.3,119.4c-1.4,0-2.2,1-2.2,3c0,1.9,0.8,3,2.2,3c1.4,0,2.2-1,2.2-3
				C386.5,120.4,385.7,119.4,384.3,119.4z"/>
			<path d="M392.9,125.9h-1l4-10.2h1l3.9,10.2h-1l-1.2-3.1H394L392.9,125.9z M396.7,118.1c-0.2-0.6-0.3-0.9-0.5-1.2h0
				c-0.1,0.4-0.2,0.6-0.5,1.3l-1.5,3.9h3.8L396.7,118.1z"/>
			<path d="M404.9,119.5h-1.6v6.5h-0.9v-6.5h-1.6v-0.7h1.6v-1.6c0-0.6,0.1-0.9,0.3-1.2c0.3-0.3,0.7-0.5,1.3-0.5
				c0.4,0,0.7,0.1,0.9,0.1v0.8c-0.2-0.1-0.6-0.2-0.9-0.2c-0.3,0-0.4,0.1-0.5,0.2c-0.2,0.2-0.2,0.4-0.2,0.8v1.5h1.6V119.5z"/>
			<path d="M409.8,119.5c-0.2,0-0.3,0-0.5,0c-1.2,0-2.1,1-2.1,2.4v4h-0.9v-7.1h0.9v1.4h0c0.3-0.8,1.1-1.6,2.2-1.6c0.2,0,0.3,0,0.5,0
				V119.5z"/>
			<path d="M412.2,117.2h-0.9v-1.5h0.9V117.2z M412.2,125.9h-0.9v-7.1h0.9V125.9z"/>
			<path d="M419.3,120.9c-0.4-1-1-1.6-2-1.6c-1.4,0-2.3,1.1-2.3,3c0,1.9,0.9,3,2.3,3c1,0,1.6-0.5,2.1-1.4l0.7,0.4
				c-0.5,1-1.4,1.7-2.8,1.7c-2,0-3.2-1.4-3.2-3.7c0-2.3,1.3-3.8,3.2-3.8c1.4,0,2.3,0.7,2.8,1.9L419.3,120.9z"/>
			<path d="M426.7,120.9v3.6c0,0.7,0.2,0.9,0.6,0.9c0.2,0,0.3,0,0.4-0.1v0.6c-0.1,0-0.4,0.1-0.7,0.1c-0.7,0-1.1-0.2-1.2-1.2h0
				c-0.3,0.6-1.1,1.2-2.4,1.2c-1.4,0-2.4-0.7-2.4-2c0-1.4,1.3-1.9,3-2.2l0.8-0.1c0.8-0.2,1-0.3,1-0.8v-0.1c0-0.9-0.5-1.5-1.8-1.5
				c-1.3,0-1.8,0.7-1.8,1.7l-0.9-0.1c0-1.4,1.1-2.3,2.8-2.3C425.6,118.6,426.7,119.1,426.7,120.9z M425.9,123.4V122
				c-0.1,0.1-0.3,0.2-0.6,0.2l-1.7,0.4c-1,0.2-1.5,0.5-1.5,1.4c0,0.9,0.7,1.4,1.6,1.4C424.9,125.4,425.9,124.6,425.9,123.4z"/>
		</g>
	</g>
	<g>
		<g>
			<path d="M151.5,123.5c-0.1-0.4-0.1-0.7-0.1-1.8v-6h0.9v6.1c0,1.2,0.1,1.6,0.3,2.1c0.4,1,1.4,1.4,2.6,1.4c1.2,0,2.2-0.4,2.6-1.4
				c0.2-0.4,0.3-0.9,0.3-2.1v-6.1h0.9v6c0,1.1,0,1.4-0.1,1.8c-0.4,1.7-1.8,2.6-3.7,2.6C153.3,126.1,151.9,125.2,151.5,123.5z"/>
			<path d="M167.3,117.7c-0.6-0.8-1.5-1.3-2.7-1.3c-1.4,0-2.4,0.7-2.4,1.8c0,1.1,0.7,1.5,2.1,1.8l1.4,0.3c1.8,0.4,2.8,1,2.8,2.7
				c0,1.7-1.4,3-3.8,3c-2.3,0-3.5-1.2-4-2.3l0.8-0.6c0.4,1,1.5,2,3.2,2c1.8,0,2.7-0.9,2.7-2.1c0-1.1-0.8-1.6-2.2-1.9l-1.3-0.3
				c-1.5-0.3-2.8-0.9-2.8-2.7c0-1.6,1.4-2.7,3.4-2.7c1.8,0,2.8,0.7,3.4,1.5L167.3,117.7z"/>
		</g>
	</g>
	<g>
		<g>
			<g>
				<g>
					<path d="M53.2,361l-8-3.8v-1l8-3.8v0.9l-7.1,3.3l7.1,3.3V361z"/>
					<path d="M56.8,361.9V354c-0.5,0.5-1.4,0.6-2.2,0.6c-0.1,0-0.3,0-0.5,0v-0.8h0.2c0.8,0,1.4-0.2,1.7-0.4c0.5-0.4,0.8-1,0.8-1.7
						h0.8v10.2H56.8z"/>
					<path d="M59.8,356.8c0-3,1.2-5.3,3.8-5.3c2.6,0,3.8,2.3,3.8,5.3c0,2.7-1,5.3-3.8,5.3C60.9,362,59.8,359.5,59.8,356.8z
						 M60.9,356.7c0,2.3,0.6,4.5,2.8,4.5c2.2,0,2.8-2.2,2.8-4.5c0-2.5-0.9-4.5-2.8-4.5S60.9,354.3,60.9,356.7z"/>
					<path d="M78.5,361.9h-0.9V358c0-1.1-0.1-1.8-0.5-2.2c-0.3-0.3-0.7-0.5-1.3-0.5c-0.7,0-1.2,0.2-1.5,0.6
						c-0.4,0.4-0.6,1.1-0.6,1.7v4.2H73v-7.1h0.9v1.2h0c0.3-0.7,1.1-1.3,2.3-1.3c0.7,0,1.4,0.2,1.8,0.7c0.5,0.5,0.6,1,0.6,2.6V361.9z
						"/>
					<path d="M89.1,358c0-1.1,0-1.7-0.3-2.2c-0.2-0.2-0.5-0.5-1-0.5c-1.2,0-1.9,1-1.9,2.7v3.8H85V358c0-1.1,0-1.7-0.3-2.2
						c-0.2-0.2-0.5-0.5-1-0.5c-1.2,0-1.9,1-1.9,2.7v3.8h-0.9v-7.1h0.9v1.2h0c0.3-0.9,1.2-1.4,2.1-1.4c0.9,0,1.8,0.5,1.9,1.5
						c0.3-0.9,1.2-1.5,2.2-1.5c0.5,0,1,0.1,1.4,0.5c0.5,0.5,0.7,1.1,0.7,2.5v4.3h-0.9V358z"/>
				</g>
			</g>
			<g>
				<g>
					<path d="M7.5,311.5v-7.8c-0.5,0.5-1.4,0.6-2.2,0.6c-0.1,0-0.3,0-0.5,0v-0.8h0.2c0.8,0,1.4-0.2,1.7-0.4c0.5-0.4,0.8-1,0.8-1.7
						h0.8v10.2H7.5z"/>
					<path d="M10.5,306.4c0-3,1.2-5.3,3.8-5.3c2.6,0,3.8,2.3,3.8,5.3c0,2.7-1,5.3-3.8,5.3C11.5,311.7,10.5,309.2,10.5,306.4z
						 M11.5,306.4c0,2.3,0.6,4.5,2.8,4.5c2.2,0,2.8-2.2,2.8-4.5c0-2.5-0.9-4.5-2.8-4.5S11.5,303.9,11.5,306.4z"/>
					<path d="M29.2,311.5h-0.9v-3.8c0-1.1-0.1-1.8-0.5-2.2c-0.3-0.3-0.7-0.5-1.3-0.5c-0.7,0-1.2,0.2-1.5,0.6
						c-0.4,0.4-0.6,1.1-0.6,1.7v4.2h-0.9v-7.1h0.9v1.2h0c0.3-0.7,1.1-1.3,2.3-1.3c0.7,0,1.4,0.2,1.8,0.7c0.5,0.5,0.6,1,0.6,2.6
						V311.5z"/>
					<path d="M39.8,307.6c0-1.1,0-1.7-0.3-2.2c-0.2-0.2-0.5-0.5-1-0.5c-1.2,0-1.9,1-1.9,2.7v3.8h-0.9v-3.9c0-1.1,0-1.7-0.3-2.2
						c-0.2-0.2-0.5-0.5-1-0.5c-1.2,0-1.9,1-1.9,2.7v3.8h-0.9v-7.1h0.9v1.2h0c0.3-0.9,1.2-1.4,2.1-1.4c0.9,0,1.8,0.5,1.9,1.5
						c0.3-0.9,1.2-1.5,2.2-1.5c0.5,0,1,0.1,1.4,0.5c0.5,0.5,0.7,1.1,0.7,2.5v4.3h-0.9V307.6z"/>
					<path d="M50.3,307.9h-7.6V307h7.6V307.9z"/>
					<path d="M52,305.8c-0.3-0.5-0.3-1.1-0.3-1.6c0-1.7,1.2-3.1,3.3-3.1c2.2,0,3.3,1.5,3.3,3.3c0,2.1-1.5,3.5-2.9,4.6
						c-0.9,0.8-1.9,1.4-2.2,1.6h5.2v0.8h-6.5v-0.8c0.8-0.5,2.2-1.6,3.5-2.7c1.1-1,2-1.9,2-3.5c0-1.6-1.1-2.5-2.4-2.5
						c-1.5,0-2.3,1.1-2.3,2.3c0,0.8,0.3,1.5,0.5,1.8L52,305.8z"/>
					<path d="M59.8,306.4c0-3,1.2-5.3,3.8-5.3c2.6,0,3.8,2.3,3.8,5.3c0,2.7-1,5.3-3.8,5.3C60.9,311.7,59.8,309.2,59.8,306.4z
						 M60.9,306.4c0,2.3,0.6,4.5,2.8,4.5c2.2,0,2.8-2.2,2.8-4.5c0-2.5-0.9-4.5-2.8-4.5S60.9,303.9,60.9,306.4z"/>
					<path d="M78.5,311.5h-0.9v-3.8c0-1.1-0.1-1.8-0.5-2.2c-0.3-0.3-0.7-0.5-1.3-0.5c-0.7,0-1.2,0.2-1.5,0.6
						c-0.4,0.4-0.6,1.1-0.6,1.7v4.2H73v-7.1h0.9v1.2h0c0.3-0.7,1.1-1.3,2.3-1.3c0.7,0,1.4,0.2,1.8,0.7c0.5,0.5,0.6,1,0.6,2.6V311.5z
						"/>
					<path d="M89.1,307.6c0-1.1,0-1.7-0.3-2.2c-0.2-0.2-0.5-0.5-1-0.5c-1.2,0-1.9,1-1.9,2.7v3.8H85v-3.9c0-1.1,0-1.7-0.3-2.2
						c-0.2-0.2-0.5-0.5-1-0.5c-1.2,0-1.9,1-1.9,2.7v3.8h-0.9v-7.1h0.9v1.2h0c0.3-0.9,1.2-1.4,2.1-1.4c0.9,0,1.8,0.5,1.9,1.5
						c0.3-0.9,1.2-1.5,2.2-1.5c0.5,0,1,0.1,1.4,0.5c0.5,0.5,0.7,1.1,0.7,2.5v4.3h-0.9V307.6z"/>
				</g>
			</g>
			<g>
				<g>
					<path d="M2.2,255.4c-0.3-0.5-0.3-1.1-0.3-1.6c0-1.7,1.2-3.1,3.3-3.1c2.2,0,3.3,1.5,3.3,3.3c0,2.1-1.5,3.5-2.9,4.6
						c-0.9,0.8-1.9,1.4-2.2,1.6h5.2v0.8H2v-0.8c0.8-0.5,2.2-1.6,3.5-2.7c1.1-1,2-1.9,2-3.5c0-1.6-1.1-2.5-2.4-2.5
						c-1.5,0-2.3,1.1-2.3,2.3c0,0.8,0.3,1.5,0.5,1.8L2.2,255.4z"/>
					<path d="M10,256c0-3,1.2-5.3,3.8-5.3c2.6,0,3.8,2.3,3.8,5.3c0,2.7-1,5.3-3.8,5.3C11,261.3,10,258.8,10,256z M11,256
						c0,2.3,0.6,4.5,2.8,4.5c2.2,0,2.8-2.2,2.8-4.5c0-2.5-0.9-4.5-2.8-4.5S11,253.5,11,256z"/>
					<path d="M28.7,261.1h-0.9v-3.8c0-1.1-0.1-1.8-0.5-2.2c-0.3-0.3-0.7-0.5-1.3-0.5c-0.7,0-1.2,0.2-1.5,0.6
						c-0.4,0.4-0.6,1.1-0.6,1.7v4.2h-0.9V254H24v1.2h0c0.3-0.7,1.1-1.3,2.3-1.3c0.7,0,1.4,0.2,1.8,0.7c0.5,0.5,0.6,1,0.6,2.6V261.1z
						"/>
					<path d="M39.3,257.3c0-1.1,0-1.7-0.3-2.2c-0.2-0.2-0.5-0.5-1-0.5c-1.2,0-1.9,1-1.9,2.7v3.8h-0.9v-3.9c0-1.1,0-1.7-0.3-2.2
						c-0.2-0.2-0.5-0.5-1-0.5c-1.2,0-1.9,1-1.9,2.7v3.8H31V254h0.9v1.2h0c0.3-0.9,1.2-1.4,2.1-1.4c0.9,0,1.8,0.5,1.9,1.5
						c0.3-0.9,1.2-1.5,2.2-1.5c0.5,0,1,0.1,1.4,0.5c0.5,0.5,0.7,1.1,0.7,2.5v4.3h-0.9V257.3z"/>
					<path d="M49.9,257.5h-7.6v-0.8h7.6V257.5z"/>
					<path d="M56.8,261.1h-0.9v-2.7h-4.7v-0.6l4.8-6.9h0.8v6.7h1.9v0.8h-1.9V261.1z M55.9,257.6v-3.4c0-0.8,0-1.6,0.1-2h0
						c-0.2,0.4-0.7,1.1-1.2,2l-2.4,3.5H55.9z"/>
					<path d="M59.8,256c0-3,1.2-5.3,3.8-5.3c2.6,0,3.8,2.3,3.8,5.3c0,2.7-1,5.3-3.8,5.3C60.9,261.3,59.8,258.8,59.8,256z M60.9,256
						c0,2.3,0.6,4.5,2.8,4.5c2.2,0,2.8-2.2,2.8-4.5c0-2.5-0.9-4.5-2.8-4.5S60.9,253.5,60.9,256z"/>
					<path d="M78.5,261.1h-0.9v-3.8c0-1.1-0.1-1.8-0.5-2.2c-0.3-0.3-0.7-0.5-1.3-0.5c-0.7,0-1.2,0.2-1.5,0.6
						c-0.4,0.4-0.6,1.1-0.6,1.7v4.2H73V254h0.9v1.2h0c0.3-0.7,1.1-1.3,2.3-1.3c0.7,0,1.4,0.2,1.8,0.7c0.5,0.5,0.6,1,0.6,2.6V261.1z"
						/>
					<path d="M89.1,257.3c0-1.1,0-1.7-0.3-2.2c-0.2-0.2-0.5-0.5-1-0.5c-1.2,0-1.9,1-1.9,2.7v3.8H85v-3.9c0-1.1,0-1.7-0.3-2.2
						c-0.2-0.2-0.5-0.5-1-0.5c-1.2,0-1.9,1-1.9,2.7v3.8h-0.9V254h0.9v1.2h0c0.3-0.9,1.2-1.4,2.1-1.4c0.9,0,1.8,0.5,1.9,1.5
						c0.3-0.9,1.2-1.5,2.2-1.5c0.5,0,1,0.1,1.4,0.5c0.5,0.5,0.7,1.1,0.7,2.5v4.3h-0.9V257.3z"/>
				</g>
			</g>
			<g>
				<g>
					<path d="M5.7,210.8H4.8v-2.7H0.1v-0.6l4.8-6.9h0.8v6.7h1.9v0.8H5.7V210.8z M4.8,207.3v-3.4c0-0.8,0-1.6,0.1-2h0
						c-0.2,0.4-0.7,1.1-1.2,2l-2.4,3.5H4.8z"/>
					<path d="M8.8,205.7c0-3,1.2-5.3,3.8-5.3c2.6,0,3.8,2.3,3.8,5.3c0,2.7-1,5.3-3.8,5.3C9.8,210.9,8.8,208.4,8.8,205.7z M9.8,205.6
						c0,2.3,0.6,4.5,2.8,4.5c2.2,0,2.8-2.2,2.8-4.5c0-2.5-0.9-4.5-2.8-4.5S9.8,203.2,9.8,205.6z"/>
					<path d="M27.5,210.8h-0.9v-3.8c0-1.1-0.1-1.8-0.5-2.2c-0.3-0.3-0.7-0.5-1.3-0.5c-0.7,0-1.2,0.2-1.5,0.6
						c-0.4,0.4-0.6,1.1-0.6,1.7v4.2h-0.9v-7.1h0.9v1.2h0c0.3-0.7,1.1-1.3,2.3-1.3c0.7,0,1.4,0.2,1.8,0.7c0.5,0.5,0.6,1,0.6,2.6
						V210.8z"/>
					<path d="M38.1,206.9c0-1.1,0-1.7-0.3-2.2c-0.2-0.2-0.5-0.5-1-0.5c-1.2,0-1.9,1-1.9,2.7v3.8h-0.9v-3.9c0-1.1,0-1.7-0.3-2.2
						c-0.2-0.2-0.5-0.5-1-0.5c-1.2,0-1.9,1-1.9,2.7v3.8h-0.9v-7.1h0.9v1.2h0c0.3-0.9,1.2-1.4,2.1-1.4c0.9,0,1.8,0.5,1.9,1.5
						c0.3-0.9,1.2-1.5,2.2-1.5c0.5,0,1,0.1,1.4,0.5c0.5,0.5,0.7,1.1,0.7,2.5v4.3h-0.9V206.9z"/>
					<path d="M40.7,201.5c-0.2-0.3-0.2-0.7-0.2-1c0-1,0.8-1.9,2.1-1.9c1.4,0,2.1,0.9,2.1,2.1c0,1.3-1,2.1-1.8,2.9
						c-0.4,0.4-0.9,0.7-1.2,0.9h3v0.6h-4.1v-0.6c0.5-0.3,1.5-1,2.2-1.7c0.6-0.6,1.2-1.2,1.2-2.1c0-0.9-0.6-1.5-1.4-1.5
						c-0.9,0-1.3,0.6-1.3,1.3c0,0.5,0.2,1,0.4,1.2L40.7,201.5z"/>
					<path d="M53.8,207.1h-7.6v-0.8h7.6V207.1z"/>
					<path d="M55.6,205.7c0-3,1.2-5.3,3.8-5.3c2.6,0,3.8,2.3,3.8,5.3c0,2.7-1,5.3-3.8,5.3C56.6,210.9,55.6,208.4,55.6,205.7z
						 M56.6,205.6c0,2.3,0.6,4.5,2.8,4.5c2.2,0,2.8-2.2,2.8-4.5c0-2.5-0.9-4.5-2.8-4.5S56.6,203.2,56.6,205.6z"/>
					<path d="M65.8,209.1v1.7h-1.2v-1.7H65.8z"/>
					<path d="M68.8,210.8v-7.8c-0.5,0.5-1.4,0.6-2.2,0.6c-0.1,0-0.3,0-0.5,0v-0.8h0.2c0.8,0,1.4-0.2,1.7-0.4c0.5-0.4,0.8-1,0.8-1.7
						h0.8v10.2H68.8z"/>
					<path d="M78.6,203c0,1.2-0.8,2-1.7,2.3c0.8,0.3,2,1,2,2.6c0,1.5-1.1,3-3.5,3c-2.5,0-3.5-1.5-3.5-3c0-1.6,1.2-2.4,2-2.7
						c-0.9-0.3-1.7-1.1-1.7-2.3c0-1.5,1.2-2.6,3.3-2.6C77.5,200.4,78.6,201.5,78.6,203z M77.9,207.9c0-1.3-1-2.2-2.5-2.2
						c-1.6,0-2.5,0.9-2.5,2.2c0,1.2,0.9,2.2,2.5,2.2S77.9,209.1,77.9,207.9z M77.7,203.1c0-1.1-0.9-1.9-2.3-1.9s-2.3,0.8-2.3,1.9
						c0,1,0.8,1.9,2.3,1.9S77.7,204.1,77.7,203.1z"/>
					<path d="M85.3,213.6h-0.9v-10h0.9v4.1c0,0.9,0.1,1.5,0.5,1.9c0.3,0.3,0.7,0.5,1.3,0.5c1.5,0,2-1.2,2-2.2v-4.2h0.9v7.1H89v-1.2
						c-0.3,0.7-1,1.3-2.2,1.3c-0.6,0-1.3-0.3-1.5-0.7V213.6z"/>
				</g>
			</g>
			<g>
				<g>
					<path d="M43,157.5l7.1-3.2l-7.1-3.2v-0.9l8,3.6v1l-8,3.6V157.5z M43,159.6h8v0.8h-8V159.6z"/>
					<path d="M52.2,155.3c0-3,1.2-5.3,3.8-5.3c2.6,0,3.8,2.3,3.8,5.3c0,2.7-1,5.3-3.8,5.3C53.2,160.6,52.2,158.1,52.2,155.3z
						 M53.2,155.3c0,2.3,0.6,4.5,2.8,4.5c2.2,0,2.8-2.2,2.8-4.5c0-2.5-0.9-4.5-2.8-4.5S53.2,152.8,53.2,155.3z"/>
					<path d="M62.4,158.7v1.7h-1.2v-1.7H62.4z"/>
					<path d="M65.5,160.4v-7.8c-0.5,0.5-1.4,0.6-2.2,0.6c-0.1,0-0.3,0-0.5,0v-0.8h0.2c0.8,0,1.4-0.2,1.7-0.4c0.5-0.4,0.8-1,0.8-1.7
						h0.8v10.2H65.5z"/>
					<path d="M75.3,152.6c0,1.2-0.8,2-1.7,2.3c0.8,0.3,2,1,2,2.6c0,1.5-1.1,3-3.5,3c-2.5,0-3.5-1.5-3.5-3c0-1.6,1.2-2.4,2-2.7
						c-0.9-0.3-1.7-1.1-1.7-2.3c0-1.5,1.2-2.6,3.3-2.6C74.1,150,75.3,151.1,75.3,152.6z M74.6,157.6c0-1.3-1-2.2-2.5-2.2
						c-1.6,0-2.5,0.9-2.5,2.2c0,1.2,0.9,2.2,2.5,2.2S74.6,158.8,74.6,157.6z M74.3,152.7c0-1.1-0.9-1.9-2.3-1.9s-2.3,0.8-2.3,1.9
						c0,1,0.8,1.9,2.3,1.9S74.3,153.7,74.3,152.7z"/>
					<path d="M81.9,163.2H81v-10h0.9v4.1c0,0.9,0.1,1.5,0.5,1.9c0.3,0.3,0.7,0.5,1.3,0.5c1.5,0,2-1.2,2-2.2v-4.2h0.9v7.1h-0.9v-1.2
						c-0.3,0.7-1,1.3-2.2,1.3c-0.6,0-1.3-0.3-1.5-0.7V163.2z"/>
					<path d="M89.5,154.6V150c-0.3,0.2-0.7,0.2-1.1,0.2c-0.1,0-0.3,0-0.4,0v-0.7h0.3c0.4,0,0.8-0.1,0.9-0.2c0.2-0.2,0.4-0.6,0.4-1
						h0.7v6.3H89.5z"/>
				</g>
			</g>
		</g>
	</g>
	<g>
		<rect x="720.3" y="134.7" class="st43" width="75.8" height="36.3"/>
		<rect x="713.4" y="185" class="st43" width="82.7" height="36.3"/>
		<rect x="768.3" y="235.4" class="st43" width="27.8" height="36.3"/>
		<rect x="734.1" y="285.7" class="st43" width="62" height="36.3"/>
	</g>
	<g>
		<rect x="672.1" y="134.7" class="st56" width="48.2" height="36.3"/>
		<rect x="644.6" y="185" class="st56" width="68.9" height="36.3"/>
		<rect x="580.4" y="235.4" class="st56" width="187.8" height="36.3"/>
		<rect x="534.4" y="285.7" class="st56" width="199.8" height="36.3"/>
		<rect x="538.7" y="336.1" class="st56" width="257.4" height="36.3"/>
	</g>
	<g>
		<rect x="555" y="134.7" class="st57" width="117.1" height="36.3"/>
		<rect x="548.1" y="185" class="st57" width="96.4" height="36.3"/>
		<rect x="580.4" y="235.4" class="st57" width="0" height="36.3"/>
		<rect x="369" y="285.7" class="st57" width="165.3" height="36.3"/>
	</g>
	<g>
		<rect x="437.9" y="134.7" class="st58" width="117.1" height="36.3"/>
		<rect x="348.4" y="185" class="st58" width="199.8" height="36.3"/>
		<rect x="371.7" y="235.4" class="st58" width="208.7" height="36.3"/>
		<rect x="300.2" y="285.7" class="st58" width="68.9" height="36.3"/>
		<rect x="100.4" y="336.1" class="st58" width="438.3" height="36.3"/>
	</g>
	<g>
		<rect x="355.3" y="134.7" class="st59" width="82.7" height="36.3"/>
		<rect x="300.2" y="185" class="st59" width="48.2" height="36.3"/>
		<rect x="323" y="235.4" class="st59" width="48.7" height="36.3"/>
		<rect x="286.4" y="285.7" class="st59" width="13.8" height="36.3"/>
	</g>
	<g>
		<rect x="210.6" y="134.7" class="st60" width="144.6" height="36.3"/>
		<rect x="190" y="185" class="st60" width="110.2" height="36.3"/>
		<rect x="218.7" y="235.4" class="st60" width="104.4" height="36.3"/>
		<rect x="183.1" y="285.7" class="st60" width="103.3" height="36.3"/>
	</g>
	<g>
		<rect x="100.4" y="134.7" class="st61" width="110.2" height="36.3"/>
		<rect x="100.4" y="185" class="st61" width="89.5" height="36.3"/>
		<rect x="100.4" y="235.4" class="st61" width="118.3" height="36.3"/>
		<rect x="100.4" y="285.7" class="st61" width="82.7" height="36.3"/>
	</g>
	<g>
		<path class="st5" d="M153.7,158.4v-7.8c-0.5,0.5-1.4,0.6-2.2,0.6c-0.1,0-0.3,0-0.5,0v-0.8h0.2c0.8,0,1.4-0.2,1.7-0.4
			c0.5-0.4,0.8-1,0.8-1.7h0.8v10.2H153.7z"/>
		<path class="st5" d="M162.6,150.7c-0.1-0.5-0.5-1.9-2.1-1.9c-1.8,0-2.7,1.7-2.8,4.2c0.5-0.8,1.5-1.4,2.8-1.4
			c1.7,0,3.2,1.2,3.2,3.3c0,1.9-1.2,3.6-3.4,3.6c-2.1,0-3.7-1.6-3.7-5.2c0-3.3,1.3-5.3,3.8-5.3c2.1,0,2.8,1.5,3,2.4L162.6,150.7z
			 M160.4,157.8c1.3,0,2.4-1,2.4-2.7c0-1.7-1.1-2.6-2.4-2.6s-2.3,0.9-2.6,1.6C157.8,156.3,158.8,157.8,160.4,157.8z"/>
	</g>
	<g>
		<path class="st5" d="M272.9,152.7c-0.3-0.5-0.3-1.1-0.3-1.6c0-1.7,1.2-3.1,3.3-3.1c2.2,0,3.3,1.5,3.3,3.3c0,2.1-1.5,3.5-2.9,4.6
			c-0.9,0.8-1.9,1.4-2.2,1.6h5.2v0.8h-6.5v-0.8c0.8-0.5,2.2-1.6,3.5-2.7c1.1-1,2-1.9,2-3.5c0-1.6-1.1-2.5-2.4-2.5
			c-1.5,0-2.3,1.1-2.3,2.3c0,0.8,0.3,1.5,0.5,1.8L272.9,152.7z"/>
		<path class="st5" d="M283,158.4v-7.8c-0.5,0.5-1.4,0.6-2.2,0.6c-0.2,0-0.3,0-0.5,0v-0.8h0.2c0.8,0,1.3-0.2,1.7-0.4
			c0.5-0.4,0.8-1,0.8-1.7h0.8v10.2H283z"/>
	</g>
	<g>
		<path class="st5" d="M392,158.4v-7.8c-0.5,0.5-1.4,0.6-2.2,0.6c-0.2,0-0.3,0-0.5,0v-0.8h0.2c0.8,0,1.3-0.2,1.7-0.4
			c0.5-0.4,0.8-1,0.8-1.7h0.8v10.2H392z"/>
		<path class="st5" d="M395.3,152.7c-0.3-0.5-0.3-1.1-0.3-1.6c0-1.7,1.2-3.1,3.3-3.1c2.2,0,3.3,1.5,3.3,3.3c0,2.1-1.5,3.5-2.9,4.6
			c-0.9,0.8-1.9,1.4-2.2,1.6h5.2v0.8h-6.5v-0.8c0.8-0.5,2.2-1.6,3.5-2.7c1.1-1,2-1.9,2-3.5c0-1.6-1.1-2.5-2.4-2.5
			c-1.5,0-2.3,1.1-2.3,2.3c0,0.8,0.3,1.5,0.5,1.8L395.3,152.7z"/>
	</g>
	<g>
		<path d="M497.4,158.4v-7.8c-0.5,0.5-1.4,0.6-2.2,0.6c-0.1,0-0.3,0-0.5,0v-0.8h0.2c0.8,0,1.3-0.2,1.7-0.4c0.5-0.4,0.8-1,0.8-1.7
			h0.8v10.2H497.4z"/>
		<path d="M507,149c-0.9,1.4-1.6,2.7-2.2,4.1c-0.6,1.5-1.1,3.3-1.3,5.3h-1c0.2-1.9,0.7-3.7,1.4-5.4c0.6-1.3,1.3-2.6,2.1-3.9h-5v2.3
			h-0.9v-3.1h6.8V149z"/>
	</g>
	<g>
		<path d="M610.1,158.4v-7.8c-0.5,0.5-1.4,0.6-2.2,0.6c-0.1,0-0.3,0-0.5,0v-0.8h0.2c0.8,0,1.3-0.2,1.7-0.4c0.5-0.4,0.8-1,0.8-1.7
			h0.8v10.2H610.1z"/>
		<path d="M619.7,149c-0.9,1.4-1.6,2.7-2.2,4.1c-0.6,1.5-1.1,3.3-1.3,5.3h-1c0.2-1.9,0.7-3.7,1.4-5.4c0.6-1.3,1.3-2.6,2.1-3.9h-5
			v2.3h-0.9v-3.1h6.8V149z"/>
	</g>
	<g>
		<path d="M699.7,149c-0.9,1.4-1.6,2.7-2.2,4.1c-0.6,1.5-1.1,3.3-1.3,5.3h-1c0.2-1.9,0.7-3.7,1.4-5.4c0.6-1.3,1.3-2.6,2.1-3.9h-5
			v2.3h-0.9v-3.1h6.8V149z"/>
	</g>
	<g>
		<path d="M756,158.4v-7.8c-0.5,0.5-1.4,0.6-2.2,0.6c-0.1,0-0.3,0-0.5,0v-0.8h0.2c0.8,0,1.3-0.2,1.7-0.4c0.5-0.4,0.8-1,0.8-1.7h0.8
			v10.2H756z"/>
		<path d="M761.2,158.4v-7.8c-0.5,0.5-1.4,0.6-2.2,0.6c-0.1,0-0.3,0-0.5,0v-0.8h0.2c0.8,0,1.3-0.2,1.7-0.4c0.5-0.4,0.8-1,0.8-1.7
			h0.8v10.2H761.2z"/>
	</g>
	<g>
		<path class="st5" d="M138,208.9v-7.8c-0.5,0.5-1.4,0.6-2.2,0.6c-0.1,0-0.3,0-0.5,0v-0.8h0.2c0.8,0,1.4-0.2,1.7-0.4
			c0.5-0.4,0.8-1,0.8-1.7h0.8v10.2H138z"/>
		<path class="st5" d="M141.1,201c0-0.8,0.8-2.5,3.2-2.5c2.1,0,3.1,1.2,3.1,2.6c0,1.3-0.8,2.1-1.9,2.3c1.1,0.2,2.2,1,2.2,2.6
			c0,1.8-1.3,3-3.4,3c-1.9,0-3.3-1.1-3.4-2.9l0.9-0.3c0.1,1.8,1.2,2.3,2.5,2.3c1.3,0,2.4-0.8,2.4-2.2c0-1-0.4-1.5-1.1-1.8
			c-0.5-0.2-0.9-0.3-2.2-0.3h-0.8v-0.8h0.6c0.7,0,1.6,0,2.3-0.3c0.6-0.3,1-0.8,1-1.6c0-1-0.8-1.9-2.2-1.9c-1.5,0-2.2,0.9-2.3,2
			L141.1,201z"/>
	</g>
	<g>
		<path class="st5" d="M241.2,208.9v-7.8c-0.5,0.5-1.4,0.6-2.2,0.6c-0.1,0-0.3,0-0.5,0v-0.8h0.2c0.8,0,1.4-0.2,1.7-0.4
			c0.5-0.4,0.8-1,0.8-1.7h0.8v10.2H241.2z"/>
		<path class="st5" d="M250.1,201.2c-0.1-0.5-0.5-1.9-2.1-1.9c-1.8,0-2.7,1.7-2.8,4.2c0.5-0.8,1.5-1.4,2.8-1.4
			c1.7,0,3.2,1.2,3.2,3.3c0,1.9-1.2,3.6-3.4,3.6c-2.1,0-3.7-1.6-3.7-5.2c0-3.3,1.3-5.3,3.8-5.3c2.1,0,2.8,1.5,3,2.4L250.1,201.2z
			 M247.9,208.3c1.3,0,2.4-1,2.4-2.7c0-1.7-1.1-2.6-2.4-2.6s-2.3,0.9-2.6,1.6C245.3,206.9,246.3,208.3,247.9,208.3z"/>
	</g>
	<g>
		<path class="st5" d="M331.1,199.5c-0.9,1.4-1.6,2.7-2.2,4.1c-0.6,1.5-1.1,3.3-1.3,5.3h-1c0.2-1.9,0.7-3.7,1.4-5.4
			c0.6-1.3,1.3-2.6,2.1-3.9h-4.9v2.3h-0.9v-3.1h6.8V199.5z"/>
	</g>
	<g>
		<path d="M441,203.2c-0.3-0.5-0.3-1.1-0.3-1.6c0-1.7,1.2-3.1,3.3-3.1c2.2,0,3.3,1.5,3.3,3.3c0,2.1-1.5,3.5-2.9,4.6
			c-0.9,0.8-1.9,1.4-2.2,1.6h5.2v0.8h-6.5v-0.8c0.8-0.5,2.2-1.6,3.5-2.7c1.1-1,2-1.9,2-3.5c0-1.6-1.1-2.5-2.4-2.5
			c-1.5,0-2.3,1.1-2.3,2.3c0,0.8,0.3,1.5,0.5,1.8L441,203.2z"/>
		<path d="M449.9,206.4c0.1,0.5,0.5,1.9,2.1,1.9c1.8,0,2.7-1.7,2.8-4.2c-0.5,0.7-1.5,1.4-2.8,1.4c-1.7,0-3.2-1.2-3.2-3.3
			c0-1.9,1.2-3.6,3.4-3.6c2.1,0,3.7,1.6,3.7,5.2c0,3.3-1.3,5.3-3.8,5.3c-2.1,0-2.8-1.5-3-2.4L449.9,206.4z M452.1,199.3
			c-1.3,0-2.4,1-2.4,2.7c0,1.7,1.1,2.6,2.4,2.6c1.3,0,2.3-0.9,2.6-1.6C454.7,200.8,453.7,199.3,452.1,199.3z"/>
	</g>
	<g>
		<path d="M591.1,208.9v-7.8c-0.5,0.5-1.4,0.6-2.2,0.6c-0.1,0-0.3,0-0.5,0v-0.8h0.2c0.8,0,1.3-0.2,1.7-0.4c0.5-0.4,0.8-1,0.8-1.7
			h0.8v10.2H591.1z"/>
		<path d="M599.2,208.9h-0.9v-2.7h-4.7v-0.6l4.8-6.9h0.8v6.7h1.9v0.8h-1.9V208.9z M598.3,205.4V202c0-0.8,0-1.6,0.1-2h0
			c-0.2,0.4-0.7,1.1-1.2,2l-2.4,3.5H598.3z"/>
	</g>
	<g>
		<path d="M676.2,208.9v-7.8c-0.5,0.5-1.4,0.6-2.2,0.6c-0.1,0-0.3,0-0.5,0v-0.8h0.2c0.8,0,1.3-0.2,1.7-0.4c0.5-0.4,0.8-1,0.8-1.7
			h0.8v10.2H676.2z"/>
		<path d="M679.2,203.8c0-3,1.2-5.3,3.8-5.3c2.6,0,3.8,2.3,3.8,5.3c0,2.7-1,5.3-3.8,5.3C680.3,209.1,679.2,206.6,679.2,203.8z
			 M680.3,203.8c0,2.3,0.6,4.5,2.8,4.5s2.8-2.2,2.8-4.5c0-2.5-0.9-4.5-2.8-4.5S680.3,201.3,680.3,203.8z"/>
	</g>
	<g>
		<path d="M756.5,208.9v-7.8c-0.5,0.5-1.4,0.6-2.2,0.6c-0.1,0-0.3,0-0.5,0v-0.8h0.2c0.8,0,1.3-0.2,1.7-0.4c0.5-0.4,0.8-1,0.8-1.7
			h0.8v10.2H756.5z"/>
		<path d="M759.9,203.2c-0.3-0.5-0.3-1.1-0.3-1.6c0-1.7,1.2-3.1,3.3-3.1c2.2,0,3.3,1.5,3.3,3.3c0,2.1-1.5,3.5-2.9,4.6
			c-0.9,0.8-1.9,1.4-2.2,1.6h5.2v0.8h-6.5v-0.8c0.8-0.5,2.2-1.6,3.5-2.7c1.1-1,2-1.9,2-3.5c0-1.6-1.1-2.5-2.4-2.5
			c-1.5,0-2.3,1.1-2.3,2.3c0,0.8,0.3,1.5,0.5,1.8L759.9,203.2z"/>
	</g>
	<g>
		<path class="st5" d="M156.1,261.1v-7.8c-0.5,0.5-1.4,0.6-2.2,0.6c-0.1,0-0.3,0-0.5,0v-0.8h0.2c0.8,0,1.4-0.2,1.7-0.4
			c0.5-0.4,0.8-1,0.8-1.7h0.8v10.2H156.1z"/>
		<path class="st5" d="M165.7,251.7c-0.9,1.4-1.6,2.7-2.2,4.1c-0.6,1.5-1.1,3.3-1.3,5.3h-1c0.2-1.9,0.7-3.7,1.4-5.4
			c0.6-1.3,1.3-2.6,2.1-3.9h-4.9v2.3h-0.9v-3.1h6.8V251.7z"/>
	</g>
	<g>
		<path class="st5" d="M262.5,261.1v-7.8c-0.5,0.5-1.4,0.6-2.2,0.6c-0.2,0-0.3,0-0.5,0v-0.8h0.2c0.8,0,1.3-0.2,1.7-0.4
			c0.5-0.4,0.8-1,0.8-1.7h0.8v10.2H262.5z"/>
		<path class="st5" d="M266.6,255.3c0.3-0.5,1.1-1.1,2.3-1.1c1.9,0,3.3,1.3,3.3,3.5c0,2-1.2,3.6-3.5,3.6c-1.7,0-3-0.9-3.3-2.5
			l0.8-0.5c0.1,1,0.9,2.2,2.5,2.2c1.5,0,2.5-1.1,2.5-2.8c0-1.5-0.8-2.6-2.4-2.6c-1.4,0-2.1,0.8-2.3,2l-0.8-0.2l0.3-5.9h5.5v0.8h-4.7
			L266.6,255.3z"/>
	</g>
	<g>
		<path class="st5" d="M350.9,251.7c-0.9,1.4-1.6,2.7-2.2,4.1c-0.6,1.5-1.1,3.3-1.3,5.3h-1c0.2-1.9,0.7-3.7,1.4-5.4
			c0.6-1.3,1.3-2.6,2.1-3.9h-4.9v2.3h-0.9v-3.1h6.8V251.7z"/>
	</g>
	<g>
		<path d="M458.1,253.3c0-0.8,0.8-2.5,3.2-2.5c2.1,0,3.2,1.2,3.2,2.6c0,1.3-0.8,2.1-1.9,2.3c1.1,0.2,2.2,1,2.2,2.6
			c0,1.8-1.3,3-3.4,3c-2,0-3.3-1.1-3.4-2.9l0.9-0.3c0.1,1.8,1.2,2.3,2.5,2.3c1.3,0,2.4-0.8,2.4-2.2c0-1-0.5-1.5-1.1-1.8
			c-0.4-0.2-0.9-0.3-2.2-0.3h-0.8v-0.8h0.6c0.7,0,1.6,0,2.3-0.3c0.6-0.3,1-0.8,1-1.6c0-1-0.8-1.9-2.2-1.9c-1.5,0-2.2,0.9-2.3,2
			L458.1,253.3z"/>
		<path d="M466.3,256c0-3,1.2-5.3,3.8-5.3c2.6,0,3.8,2.3,3.8,5.3c0,2.7-1,5.3-3.8,5.3C467.3,261.3,466.3,258.8,466.3,256z
			 M467.3,256c0,2.3,0.6,4.5,2.8,4.5s2.8-2.2,2.8-4.5c0-2.5-0.9-4.5-2.8-4.5S467.3,253.5,467.3,256z"/>
	</g>
	<g>
		<path d="M655.3,255.4c-0.3-0.5-0.3-1.1-0.3-1.6c0-1.7,1.2-3.1,3.3-3.1c2.2,0,3.3,1.5,3.3,3.3c0,2.1-1.5,3.5-2.9,4.6
			c-0.9,0.8-1.9,1.4-2.2,1.6h5.2v0.8h-6.5v-0.8c0.8-0.5,2.2-1.6,3.5-2.7c1.1-1,2-1.9,2-3.5c0-1.6-1.1-2.5-2.4-2.5
			c-1.5,0-2.3,1.1-2.3,2.3c0,0.8,0.3,1.5,0.5,1.8L655.3,255.4z"/>
		<path d="M669.7,251.7c-0.9,1.4-1.6,2.7-2.2,4.1c-0.6,1.5-1.1,3.3-1.3,5.3h-1c0.2-1.9,0.7-3.7,1.4-5.4c0.6-1.3,1.3-2.6,2.1-3.9h-5
			v2.3h-0.9v-3.1h6.8V251.7z"/>
	</g>
	<g>
		<path d="M784,261.1h-0.9v-2.7h-4.7v-0.6l4.8-6.9h0.8v6.7h1.9v0.8H784V261.1z M783.1,257.6v-3.4c0-0.8,0-1.6,0.1-2h0
			c-0.2,0.4-0.7,1.1-1.2,2l-2.4,3.5H783.1z"/>
	</g>
	<g>
		<path class="st5" d="M131.5,309.5v-7.8c-0.5,0.5-1.4,0.6-2.2,0.6c-0.1,0-0.3,0-0.5,0v-0.8h0.2c0.8,0,1.4-0.2,1.7-0.4
			c0.5-0.4,0.8-1,0.8-1.7h0.8v10.2H131.5z"/>
		<path class="st5" d="M134.8,303.8c-0.3-0.5-0.3-1.1-0.3-1.6c0-1.7,1.2-3.1,3.3-3.1c2.2,0,3.3,1.5,3.3,3.3c0,2.1-1.5,3.5-2.9,4.6
			c-0.9,0.8-1.9,1.4-2.2,1.6h5.2v0.8h-6.5v-0.8c0.8-0.5,2.2-1.6,3.5-2.7c1.1-1,2-1.9,2-3.5c0-1.6-1.1-2.5-2.4-2.5
			c-1.5,0-2.3,1.1-2.3,2.3c0,0.8,0.3,1.5,0.5,1.8L134.8,303.8z"/>
	</g>
	<g>
		<path class="st5" d="M231.1,309.5v-7.8c-0.5,0.5-1.4,0.6-2.2,0.6c-0.1,0-0.3,0-0.5,0v-0.8h0.2c0.8,0,1.4-0.2,1.7-0.4
			c0.5-0.4,0.8-1,0.8-1.7h0.8v10.2H231.1z"/>
		<path class="st5" d="M235.2,303.6c0.3-0.5,1.1-1.1,2.3-1.1c1.9,0,3.3,1.3,3.3,3.5c0,2-1.2,3.6-3.5,3.6c-1.7,0-3-0.9-3.3-2.5
			l0.8-0.5c0.1,1,0.9,2.2,2.5,2.2c1.5,0,2.5-1.1,2.5-2.8c0-1.5-0.8-2.6-2.4-2.6c-1.4,0-2.1,0.8-2.3,2l-0.8-0.2l0.3-5.9h5.5v0.8h-4.7
			L235.2,303.6z"/>
	</g>
	<g>
		<path class="st5" d="M289.4,303.8c-0.3-0.5-0.3-1.1-0.3-1.6c0-1.7,1.2-3.1,3.3-3.1c2.2,0,3.3,1.5,3.3,3.3c0,2.1-1.5,3.5-2.9,4.6
			c-0.9,0.8-1.9,1.4-2.2,1.6h5.2v0.8h-6.5v-0.8c0.8-0.5,2.2-1.6,3.5-2.7c1.1-1,2-1.9,2-3.5c0-1.6-1.1-2.5-2.4-2.5
			c-1.5,0-2.3,1.1-2.3,2.3c0,0.8,0.3,1.5,0.5,1.8L289.4,303.8z"/>
	</g>
	<g>
		<path d="M330.4,309.5v-7.8c-0.5,0.5-1.4,0.6-2.2,0.6c-0.1,0-0.3,0-0.5,0v-0.8h0.2c0.8,0,1.3-0.2,1.7-0.4c0.5-0.4,0.8-1,0.8-1.7
			h0.8v10.2H330.4z"/>
		<path d="M333.4,304.4c0-3,1.2-5.3,3.8-5.3c2.6,0,3.8,2.3,3.8,5.3c0,2.7-1,5.3-3.8,5.3C334.4,309.7,333.4,307.2,333.4,304.4z
			 M334.4,304.4c0,2.3,0.6,4.5,2.8,4.5s2.8-2.2,2.8-4.5c0-2.5-0.9-4.5-2.8-4.5S334.4,301.9,334.4,304.4z"/>
	</g>
	<g>
		<path d="M441.3,303.8c-0.3-0.5-0.3-1.1-0.3-1.6c0-1.7,1.2-3.1,3.3-3.1c2.2,0,3.3,1.5,3.3,3.3c0,2.1-1.5,3.5-2.9,4.6
			c-0.9,0.8-1.9,1.4-2.2,1.6h5.2v0.8H441v-0.8c0.8-0.5,2.2-1.6,3.5-2.7c1.1-1,2-1.9,2-3.5c0-1.6-1.1-2.5-2.4-2.5
			c-1.5,0-2.3,1.1-2.3,2.3c0,0.8,0.3,1.5,0.5,1.8L441.3,303.8z"/>
		<path d="M454.1,309.5h-0.9v-2.7h-4.7v-0.6l4.8-6.9h0.8v6.7h1.9v0.8h-1.9V309.5z M453.1,306v-3.4c0-0.8,0-1.6,0.1-2h0
			c-0.2,0.4-0.7,1.1-1.2,2l-2.4,3.5H453.1z"/>
	</g>
	<g>
		<path d="M315.8,352.2c-0.1-0.5-0.5-1.9-2.1-1.9c-1.8,0-2.7,1.7-2.8,4.2c0.5-0.8,1.5-1.4,2.8-1.4c1.7,0,3.2,1.2,3.2,3.3
			c0,1.9-1.2,3.6-3.4,3.6c-2.1,0-3.7-1.6-3.7-5.2c0-3.3,1.3-5.3,3.8-5.3c2.1,0,2.8,1.5,3,2.4L315.8,352.2z M313.6,359.2
			c1.3,0,2.4-1,2.4-2.7c0-1.7-1.1-2.6-2.4-2.6c-1.3,0-2.3,0.9-2.6,1.6C311,357.8,312,359.2,313.6,359.2z"/>
		<path d="M318.5,352c0-0.8,0.8-2.5,3.2-2.5c2.1,0,3.2,1.2,3.2,2.6c0,1.3-0.8,2.1-1.9,2.3c1.1,0.2,2.2,1,2.2,2.6c0,1.8-1.3,3-3.4,3
			c-2,0-3.3-1.1-3.4-2.9l0.9-0.3c0.1,1.8,1.2,2.3,2.5,2.3c1.3,0,2.4-0.8,2.4-2.2c0-1-0.5-1.5-1.1-1.8c-0.4-0.2-0.9-0.3-2.2-0.3H320
			v-0.8h0.6c0.7,0,1.6,0,2.3-0.3c0.6-0.3,1-0.8,1-1.6c0-1-0.8-1.9-2.2-1.9c-1.5,0-2.2,0.9-2.3,2L318.5,352z"/>
	</g>
	<g>
		<path d="M665,352c0-0.8,0.8-2.5,3.2-2.5c2.1,0,3.2,1.2,3.2,2.6c0,1.3-0.8,2.1-1.9,2.3c1.1,0.2,2.2,1,2.2,2.6c0,1.8-1.3,3-3.4,3
			c-2,0-3.3-1.1-3.4-2.9l0.9-0.3c0.1,1.8,1.2,2.3,2.5,2.3c1.3,0,2.4-0.8,2.4-2.2c0-1-0.5-1.5-1.1-1.8c-0.4-0.2-0.9-0.3-2.2-0.3h-0.8
			v-0.8h0.6c0.7,0,1.6,0,2.3-0.3c0.6-0.3,1-0.8,1-1.6c0-1-0.8-1.9-2.2-1.9c-1.5,0-2.2,0.9-2.3,2L665,352z"/>
		<path d="M679.7,350.4c-0.9,1.4-1.6,2.7-2.2,4.1c-0.6,1.5-1.1,3.3-1.3,5.3h-1c0.2-1.9,0.7-3.7,1.4-5.4c0.6-1.3,1.3-2.6,2.1-3.9h-5
			v2.3h-0.9v-3.1h6.8V350.4z"/>
	</g>
	<g>
		<path d="M627,303.8c-0.3-0.5-0.3-1.1-0.3-1.6c0-1.7,1.2-3.1,3.3-3.1c2.2,0,3.3,1.5,3.3,3.3c0,2.1-1.5,3.5-2.9,4.6
			c-0.9,0.8-1.9,1.4-2.2,1.6h5.2v0.8h-6.5v-0.8c0.8-0.5,2.2-1.6,3.5-2.7c1.1-1,2-1.9,2-3.5c0-1.6-1.1-2.5-2.4-2.5
			c-1.5,0-2.3,1.1-2.3,2.3c0,0.8,0.3,1.5,0.5,1.8L627,303.8z"/>
		<path d="M635.9,307c0.1,0.5,0.5,1.9,2.1,1.9c1.8,0,2.7-1.7,2.8-4.2c-0.5,0.7-1.5,1.4-2.8,1.4c-1.7,0-3.2-1.2-3.2-3.3
			c0-1.9,1.2-3.6,3.4-3.6c2.1,0,3.7,1.6,3.7,5.2c0,3.3-1.3,5.3-3.8,5.3c-2.1,0-2.8-1.5-3-2.4L635.9,307z M638.1,299.9
			c-1.3,0-2.4,1-2.4,2.7c0,1.7,1.1,2.6,2.4,2.6c1.3,0,2.3-0.9,2.6-1.6C640.7,301.3,639.7,299.9,638.1,299.9z"/>
	</g>
	<g>
		<path d="M762.7,307c0.1,0.5,0.5,1.9,2.1,1.9c1.8,0,2.7-1.7,2.8-4.2c-0.5,0.7-1.5,1.4-2.8,1.4c-1.7,0-3.2-1.2-3.2-3.3
			c0-1.9,1.2-3.6,3.4-3.6c2.1,0,3.7,1.6,3.7,5.2c0,3.3-1.3,5.3-3.8,5.3c-2.1,0-2.8-1.5-3-2.4L762.7,307z M764.9,299.9
			c-1.3,0-2.4,1-2.4,2.7c0,1.7,1.1,2.6,2.4,2.6c1.3,0,2.3-0.9,2.6-1.6C767.5,301.3,766.5,299.9,764.9,299.9z"/>
	</g>
	<g>
		<rect x="86.2" y="152.9" class="st3" width="5.7" height="0"/>
	</g>
</g>
</svg>
